<?xml version="1.0" encoding="UTF-8" standalone="no"?>
<!-- Created with Inkscape (http://www.inkscape.org/) -->

<svg
   xmlns:dc="http://purl.org/dc/elements/1.1/"
   xmlns:cc="http://creativecommons.org/ns#"
   xmlns:rdf="http://www.w3.org/1999/02/22-rdf-syntax-ns#"
   xmlns:svg="http://www.w3.org/2000/svg"
   xmlns="http://www.w3.org/2000/svg"
   xmlns:sodipodi="http://sodipodi.sourceforge.net/DTD/sodipodi-0.dtd"
   xmlns:inkscape="http://www.inkscape.org/namespaces/inkscape"
   width="341.69046mm"
   height="1180.7976mm"
   viewBox="0 0 341.69046 1180.7976"
   version="1.1"
   id="svg8"
   inkscape:version="0.92.2 (5c3e80d, 2017-08-06)"
   sodipodi:docname="geepm.svg">
  <title
     id="title4707">Gay Purple Man</title>
  <defs
     id="defs2" />
  <sodipodi:namedview
     id="base"
     pagecolor="#ffffff"
     bordercolor="#666666"
     borderopacity="1.0"
     inkscape:pageopacity="0.0"
     inkscape:pageshadow="2"
     inkscape:zoom="2.56"
     inkscape:cx="652.28232"
     inkscape:cy="182.44415"
     inkscape:document-units="mm"
     inkscape:current-layer="layer1"
     showgrid="false"
     inkscape:window-width="1920"
     inkscape:window-height="1016"
     inkscape:window-x="0"
     inkscape:window-y="27"
     inkscape:window-maximized="1"
     fit-margin-top="0"
     fit-margin-left="0"
     fit-margin-right="0"
     fit-margin-bottom="0" />
  <metadata
     id="metadata5">
    <rdf:RDF>
      <cc:Work
         rdf:about="">
        <dc:format>image/svg+xml</dc:format>
        <dc:type
           rdf:resource="http://purl.org/dc/dcmitype/StillImage" />
        <dc:title>Gay Purple Man</dc:title>
        <cc:license
           rdf:resource="http://creativecommons.org/licenses/by/4.0/" />
        <dc:creator>
          <cc:Agent>
            <dc:title>Maxwell Brickner</dc:title>
          </cc:Agent>
        </dc:creator>
      </cc:Work>
      <cc:License
         rdf:about="http://creativecommons.org/licenses/by/4.0/">
        <cc:permits
           rdf:resource="http://creativecommons.org/ns#Reproduction" />
        <cc:permits
           rdf:resource="http://creativecommons.org/ns#Distribution" />
        <cc:requires
           rdf:resource="http://creativecommons.org/ns#Notice" />
        <cc:requires
           rdf:resource="http://creativecommons.org/ns#Attribution" />
        <cc:permits
           rdf:resource="http://creativecommons.org/ns#DerivativeWorks" />
      </cc:License>
    </rdf:RDF>
  </metadata>
  <g
     inkscape:label="Layer 1"
     inkscape:groupmode="layer"
     id="layer1"
     transform="translate(73.327381,855.07141)">
    <path
       style="fill:#ff6600;fill-opacity:1;stroke:none;stroke-width:0.26458332px;stroke-linecap:butt;stroke-linejoin:miter;stroke-opacity:1"
       d="M -73.327381,212.33333 107.34524,325.72618 268.36309,241.81547 96.761905,-855.07141 Z"
       id="path4672"
       inkscape:connector-curvature="0" />
    <path
       style="fill:#7f2aff;fill-opacity:1;stroke:none;stroke-width:0.26458332px;stroke-linecap:butt;stroke-linejoin:miter;stroke-opacity:1"
       d="M 14.363095,38.842262 98.273808,158.28274 190.87797,34.306547 101.29762,-116.88393 Z"
       id="path89"
       inkscape:connector-curvature="0" />
    <path
       style="fill:#7f2aff;fill-opacity:1;stroke:none;stroke-width:0.99999994px;stroke-linecap:butt;stroke-linejoin:miter;stroke-opacity:1"
       d="m 747.51367,556.83398 -115.66406,252.03321 -85.86133,-32.83008 -15.15234,36.87109 59.09375,21.21289 -152.53321,88.38868 26.26368,56.56835 53.53711,-28.78906 25.75976,30.30469 12.12109,-8.08203 43.4375,36.87108 129.29883,-68.18553 161.11914,-109.60157 z"
       transform="scale(0.26458333)"
       id="path10"
       inkscape:connector-curvature="0" />
    <path
       style="fill:#7f2aff;stroke:none;stroke-width:0.99999994px;stroke-linecap:butt;stroke-linejoin:miter;stroke-opacity:1"
       d="M 26.769531,563.16602 -114.65234,837.92773 46.466797,947.5293 l 129.300783,68.1855 43.43554,-36.87105 12.12305,8.08203 25.75781,-30.30469 53.53907,28.78907 26.26367,-56.56836 -152.5332,-88.38868 59.09375,-21.21289 -15.15235,-36.87109 -85.86328,32.83008 z"
       transform="scale(0.26458333)"
       id="path10-3"
       inkscape:connector-curvature="0" />
    <path
       sodipodi:type="star"
       style="fill:#ffcc00;fill-opacity:1;stroke:none;stroke-width:0.26458332"
       id="path32"
       sodipodi:sides="5"
       sodipodi:cx="5.6696377"
       sodipodi:cy="202.88393"
       sodipodi:r1="16.903608"
       sodipodi:r2="8.4518042"
       sodipodi:arg1="0.1798535"
       sodipodi:arg2="0.80817203"
       inkscape:flatsided="false"
       inkscape:rounded="0"
       inkscape:randomized="0"
       d="m 22.300589,205.90774 -10.792265,3.08706 -3.5752533,10.64051 -6.2709632,-9.3101 -11.2245429,-0.11217 6.9165973,-8.84102 -3.3618961,-10.70983 10.5456553,3.84604 9.1467769,-6.50687 -0.399024,11.21801 z"
       inkscape:transform-center-x="-0.69943847"
       inkscape:transform-center-y="0.93440784" />
    <path
       sodipodi:type="star"
       style="fill:#ffcc00;fill-opacity:1;stroke:none;stroke-width:0.26458332"
       id="path34"
       sodipodi:sides="5"
       sodipodi:cx="200.70535"
       sodipodi:cy="208.93155"
       sodipodi:r1="23.815498"
       sodipodi:r2="11.90775"
       sodipodi:arg1="0.62762943"
       sodipodi:arg2="1.255948"
       inkscape:flatsided="false"
       inkscape:rounded="0"
       inkscape:randomized="0"
       d="m 219.98214,222.91667 -15.58929,-2.66272 -11.03128,11.33255 -2.28496,-15.64911 -14.18675,-6.98943 14.1771,-7.00897 2.26339,-15.65225 11.0469,11.31733 15.58559,-2.68419 -7.34974,14.00346 z"
       inkscape:transform-center-x="2.2693556"
       inkscape:transform-center-y="0.005070881" />
    <path
       style="fill:#ffcc00;fill-opacity:1;stroke:none;stroke-width:0.26458332px;stroke-linecap:butt;stroke-linejoin:miter;stroke-opacity:1"
       d="m 72.763954,50.453598 15.875,-31.372023 16.252976,33.639881 h -9.449406 l -6.80357,-15.875 -6.047621,14.741072 z"
       id="path38"
       inkscape:connector-curvature="0" />
    <path
       style="fill:#ffcc00;fill-opacity:1;stroke:none;stroke-width:0.26458332px;stroke-linecap:butt;stroke-linejoin:miter;stroke-opacity:1"
       d="m 137.0199,50.453598 -15.875,-31.372022 -16.25297,33.63988 h 9.4494 l 6.80357,-15.874999 6.04762,14.741072 z"
       id="path38-7"
       inkscape:connector-curvature="0" />
    <path
       style="fill:#ffcc00;fill-opacity:1;stroke:none;stroke-width:0.26458332px;stroke-linecap:butt;stroke-linejoin:miter;stroke-opacity:1"
       d="m 43.845238,36.574405 55.5625,83.154765 62.744042,-82.77679 h -9.4494 l -53.294642,65.0119 -45.73513,-66.523806 z"
       id="path38-5"
       inkscape:connector-curvature="0"
       sodipodi:nodetypes="ccccccc" />
    <ellipse
       style="fill:#7f2aff;fill-opacity:1;stroke:none;stroke-width:0.31081119"
       id="path72"
       cx="6.0783987"
       cy="203.49452"
       rx="5.0389638"
       ry="5.0045791" />
    <ellipse
       style="fill:#7f2aff;fill-opacity:1;stroke:none;stroke-width:0.36909661"
       id="path72-3"
       cx="200.51636"
       cy="209.11409"
       rx="5.9839044"
       ry="5.9430718" />
    <path
       style="fill:#ff6600;fill-opacity:1;stroke:none;stroke-width:0.26458332px;stroke-linecap:butt;stroke-linejoin:miter;stroke-opacity:1"
       d="m 3.0238094,21.833333 11.3392856,17.008929 66.52381,-54.050595 20.410715,24.1904756 26.45833,-18.1428567 63.12202,43.4672611 13.22917,-85.800593 -96.00595,-90.714284 -44.601191,32.50595 z"
       id="path4670"
       inkscape:connector-curvature="0" />
    <g
       aria-label="GAY PURPLE MAN"
       transform="scale(0.26458333)"
       style="font-style:normal;font-weight:normal;font-size:40px;line-height:1.25;font-family:sans-serif;letter-spacing:0px;word-spacing:0px;fill:#000000;fill-opacity:1;stroke:none"
       id="flowRoot4674">
      <path
         d="m 441.52587,-2672.6763 -57.65823,5.9218 2.53501,24.6824 32.7783,-3.3665 c 0.0417,8.1771 -1.42595,13.3163 -5.24277,18.8965 -6.21623,9.4182 -16.74669,15.6879 -28.00189,16.8439 -24.09009,2.4742 -43.22131,-16.7125 -46.26332,-46.3315 -3.18398,-31.0012 9.89636,-51.3011 35.1712,-53.8969 10.26791,-1.0546 19.26034,1.015 26.36463,6.072 4.51169,3.1285 7.02852,6.2622 10.36613,13.502 l 27.84181,-2.8595 c -6.61656,-29.4514 -32.61297,-45.5384 -67.36587,-41.9691 -41.46655,4.2588 -66.55987,37.7652 -61.9563,82.5885 4.48189,43.6385 36.18119,72.5093 75.08074,68.5141 19.35106,-1.9874 31.67359,-10.2371 41.06837,-27.5644 l 5.50116,18.5911 17.77138,-1.8253 z"
         style="font-style:normal;font-variant:normal;font-weight:bold;font-stretch:normal;font-size:96px;font-family:'Nimbus Sans';-inkscape-font-specification:'Nimbus Sans Bold';fill:#ffcc00;fill-opacity:1;stroke-width:2.06769156"
         id="path4682"
         inkscape:connector-curvature="0" />
      <path
         d="m 413.22658,-2303.1733 3.08814,57.3277 55.2256,14.7977 -20.32054,-285.6394 -59.52887,-15.9509 -162.92804,236.5382 54.86699,14.7014 31.69682,-48.0067 z m -2.69185,-48.7655 -68.13545,-18.257 61.453,-93.0748 z"
         style="font-style:normal;font-variant:normal;font-weight:bold;font-stretch:normal;font-size:96px;font-family:'Nimbus Sans';-inkscape-font-specification:'Nimbus Sans Bold';fill:#ffcc00;fill-opacity:1;stroke-width:3.86727166"
         id="path4684"
         inkscape:connector-curvature="0" />
      <path
         d="m 468.33048,-1933.6377 28.30071,-245.9816 -75.99708,27.8884 -9.42565,168.7356 -120.85506,-120.9267 -75.54471,27.7224 185.66725,167.4622 44.8207,122.1381 67.85454,-24.9004 z"
         style="font-style:normal;font-variant:normal;font-weight:bold;font-stretch:normal;font-size:96px;font-family:'Nimbus Sans';-inkscape-font-specification:'Nimbus Sans Bold';fill:#ffcc00;fill-opacity:1;stroke-width:5.019382"
         id="path4686"
         inkscape:connector-curvature="0" />
      <path
         d="m 212.4446,-1703.7756 50.59693,19.9892 c 36.25662,14.3239 69.68076,-2.1876 85.50109,-42.2322 15.60655,-39.5035 1.70061,-70.0214 -39.42631,-86.2693 l -87.12413,-34.42 -77.92586,197.2469 40.58578,16.0341 z m 13.36176,-33.8214 23.40983,-59.2553 37.88006,14.9652 c 21.64575,8.5515 27.91559,21.9767 20.00542,41.999 -8.01705,20.2928 -21.76951,25.8078 -43.41525,17.2563 z"
         style="font-style:normal;font-variant:normal;font-weight:bold;font-stretch:normal;font-size:96px;font-family:'Nimbus Sans';-inkscape-font-specification:'Nimbus Sans Bold';fill:#7f2aff;fill-opacity:1;stroke:none;stroke-width:30.93333435;stroke-miterlimit:4;stroke-dasharray:none;stroke-opacity:1"
         id="path4688"
         inkscape:connector-curvature="0" />
      <path
         d="m 495.44652,-1692.6245 38.64877,149.9683 c 6.8848,26.715 -3.49036,42.9859 -32.02684,50.3401 -28.53648,7.3543 -45.48347,-1.8754 -52.36827,-28.5904 l -38.64877,-149.9683 -45.53693,11.7354 38.64876,149.9683 c 6.41538,24.8936 17.63183,40.78 35.94964,50.3039 19.84506,10.4253 45.25484,12.2942 71.96984,5.4094 26.715,-6.8848 48.05647,-20.8021 60.39085,-39.5204 11.43298,-17.1912 13.57404,-36.52 7.15866,-61.4135 L 540.98346,-1704.36 Z"
         style="font-style:normal;font-variant:normal;font-weight:bold;font-stretch:normal;font-size:96px;font-family:'Nimbus Sans';-inkscape-font-specification:'Nimbus Sans Bold';fill:#7f2aff;fill-opacity:1;stroke:none;stroke-width:30.93333435;stroke-miterlimit:4;stroke-dasharray:none;stroke-opacity:1"
         id="path4690"
         inkscape:connector-curvature="0" />
      <path
         d="m 208.08461,-1431.8126 61.44625,-12.1072 c 23.22097,-4.5754 35.05399,2.742 39.27743,24.1768 l 2.11172,10.7173 c 0.98017,6.8581 2.24721,13.2886 3.0215,17.2182 4.85695,24.65 7.76414,31.8706 16.65823,43.1071 l 57.51655,-11.3329 -1.90054,-9.6456 c -9.13173,-3.0252 -13.4028,-7.7504 -15.65529,-19.1822 -16.56297,-76.5262 -18.69587,-79.8172 -54.73533,-87.5606 27.04163,-17.2039 37.53565,-41.1675 31.2709,-72.9623 -4.08267,-20.7203 -14.95828,-38.2464 -29.99595,-48.6437 -14.18237,-9.8234 -31.74194,-12.3014 -53.89117,-7.9372 l -139.68303,27.5228 51.31477,260.432 53.58685,-10.5586 z m -8.79883,-44.6557 -13.37423,-67.8767 64.66146,-12.7407 c 15.36156,-3.0268 21.7163,-2.7944 29.55983,1.2268 7.48628,4.0916 12.46126,12.3893 14.85454,24.5357 2.46367,12.5036 1.21941,23.14 -4.15516,29.7657 -5.08771,6.198 -11.52341,9.3217 -26.88498,12.3485 z"
         style="font-style:normal;font-variant:normal;font-weight:bold;font-stretch:normal;font-size:96px;font-family:'Nimbus Sans';-inkscape-font-specification:'Nimbus Sans Bold';fill:#7f2aff;fill-opacity:1;stroke:none;stroke-width:30.93333435;stroke-miterlimit:4;stroke-dasharray:none;stroke-opacity:1"
         id="path4692"
         inkscape:connector-curvature="0" />
      <path
         d="m 213.50467,-1115.3554 66.8232,11.6519 c 47.884,8.3495 84.53493,-20.2395 93.75675,-73.1263 9.0972,-52.1721 -15.57753,-85.9313 -69.89372,-95.4023 l -115.06454,-20.0637 -45.42369,260.5033 53.6015,9.3464 z m 7.78868,-44.6678 13.6458,-78.2583 50.02807,8.7234 c 28.58746,4.9847 39.62833,19.7972 35.01742,46.2406 -4.67321,26.8007 -20.07576,37.0024 -48.66322,32.0176 z"
         style="font-style:normal;font-variant:normal;font-weight:bold;font-stretch:normal;font-size:96px;font-family:'Nimbus Sans';-inkscape-font-specification:'Nimbus Sans Bold';fill:#7f2aff;fill-opacity:1;stroke:none;stroke-width:30.93333435;stroke-miterlimit:4;stroke-dasharray:none;stroke-opacity:1"
         id="path4694"
         inkscape:connector-curvature="0" />
      <path
         d="m 482.28222,-1260.6783 -74.32002,11.0065 53.49162,361.19534 247.23795,-36.61497 -9.17209,-61.93336 -172.91793,25.60847 z"
         style="font-style:normal;font-variant:normal;font-weight:bold;font-stretch:normal;font-size:96px;font-family:'Nimbus Sans';-inkscape-font-specification:'Nimbus Sans Bold';fill:#7f2aff;fill-opacity:1;stroke:none;stroke-width:30.93333435;stroke-miterlimit:4;stroke-dasharray:none;stroke-opacity:1"
         id="path4696"
         inkscape:connector-curvature="0" />
      <path
         d="m 326.32576,-739.9859 -196.49153,52.64975 -18.85737,-70.37668 196.49153,-52.64975 -24.89172,-92.89714 -212.255891,56.87379 -18.857348,-70.37658 296.707829,-79.50263 109.97612,410.43647 -306.84206,82.21809 -18.85735,-70.37659 222.39013,-59.58925 z"
         style="font-style:normal;font-variant:normal;font-weight:bold;font-stretch:normal;font-size:96px;font-family:'Nimbus Sans';-inkscape-font-specification:'Nimbus Sans Bold';fill:#7f2aff;fill-opacity:1;stroke:none;stroke-width:30.93333435;stroke-miterlimit:4;stroke-dasharray:none;stroke-opacity:1"
         id="path4698"
         inkscape:connector-curvature="0" />
      <path
         d="m -5.3713235,-404.04174 22.2962435,230.70385 59.137653,7.75106 80.209037,-217.2687 -29.35065,223.93459 59.13766,7.75105 37.67011,-287.40901 -89.10074,-11.67825 -80.434866,222.05138 -22.070415,-235.48654 -88.312229,-11.5749 -37.670108,287.40901 59.137656,7.75105 z"
         style="font-style:normal;font-variant:normal;font-weight:bold;font-stretch:normal;font-size:96px;font-family:'Nimbus Sans';-inkscape-font-specification:'Nimbus Sans Bold';fill:#ffcc00;fill-opacity:1;stroke-width:4.14190626"
         id="path4700"
         inkscape:connector-curvature="0" />
      <path
         d="m 454.89329,-144.44299 26.9537,82.545699 h 86.47645 L 426.81652,-471.25658 H 333.60165 L 188.16381,-61.897291 h 85.91509 l 27.51523,-82.545699 z m -23.02295,-70.19192 H 325.17862 l 53.34586,-160.03758 z"
         style="font-style:normal;font-variant:normal;font-weight:bold;font-stretch:normal;font-size:96px;font-family:'Nimbus Sans';-inkscape-font-specification:'Nimbus Sans Bold';fill:#ffcc00;fill-opacity:1;stroke-width:5.84932709"
         id="path4702"
         inkscape:connector-curvature="0" />
      <path
         d="m 743.74775,-226.75552 43.8935,-11.76124 -57.15956,-213.32241 -43.89353,11.76121 38.89047,145.1412 -123.4586,-122.48121 -45.064,12.07485 57.15956,213.32241 43.89353,-11.76121 -39.51776,-147.48218 z"
         style="font-style:normal;font-variant:normal;font-weight:bold;font-stretch:normal;font-size:96px;font-family:'Nimbus Sans';-inkscape-font-specification:'Nimbus Sans Bold';fill:#ffcc00;fill-opacity:1;stroke-width:3.15568733"
         id="path4704"
         inkscape:connector-curvature="0" />
      <g
         aria-label="END IT"
         transform="matrix(0.51713033,0,0,0.51713033,38.356805,-1250.2609)"
         style="font-style:normal;font-weight:normal;font-size:40px;line-height:1.25;font-family:sans-serif;letter-spacing:0px;word-spacing:0px;fill:#000000;fill-opacity:1;stroke:none"
         id="flowRoot4709">
        <g
           aria-label="Let Go.
Let's Go."
           transform="translate(428.68349,99.436893)"
           style="font-style:normal;font-weight:normal;font-size:40px;line-height:1.25;font-family:sans-serif;letter-spacing:0px;word-spacing:0px;fill:#7f2aff;fill-opacity:1;stroke:none"
           id="flowRoot844">
          <g
             id="g916">
            <path
               inkscape:connector-curvature="0"
               id="path881"
               style="font-style:normal;font-variant:normal;font-weight:normal;font-stretch:normal;font-family:monospace;-inkscape-font-specification:monospace;text-align:center;text-anchor:middle;fill:#7f2aff;fill-opacity:1;stroke-width:1.32078815"
               d="m 149.87793,4137.5325 h 5.23672 v 34.1289 h 18.59938 v 4.3854 h -23.8361 z" />
            <path
               inkscape:connector-curvature="0"
               id="path883"
               style="font-style:normal;font-variant:normal;font-weight:normal;font-stretch:normal;font-family:monospace;-inkscape-font-specification:monospace;text-align:center;text-anchor:middle;fill:#7f2aff;fill-opacity:1;stroke-width:1.32078815"
               d="m 204.79898,4160.4141 v 2.3216 h -20.55993 v 0.1548 q 0,4.7208 2.45068,7.3004 2.47648,2.5798 6.9651,2.5798 2.27011,0 4.74658,-0.7224 2.47648,-0.7222 5.28832,-2.1927 v 4.7209 q -2.70865,1.1092 -5.23673,1.651 -2.50227,0.5673 -4.84976,0.5673 -6.73293,0 -10.52503,-4.0241 -3.79212,-4.0501 -3.79212,-11.1441 0,-6.9136 3.71473,-11.041 3.71471,-4.1275 9.9059,-4.1275 5.52049,0 8.69348,3.7404 3.19878,3.7407 3.19878,10.2156 z m -4.74659,-1.3931 q -0.10314,-4.179 -1.98634,-6.346 -1.85736,-2.1926 -5.3657,-2.1926 -3.43095,0 -5.64946,2.27 -2.21851,2.2702 -2.63126,6.2944 z" />
            <path
               inkscape:connector-curvature="0"
               id="path885"
               style="font-style:normal;font-variant:normal;font-weight:normal;font-stretch:normal;font-family:monospace;-inkscape-font-specification:monospace;text-align:center;text-anchor:middle;fill:#7f2aff;fill-opacity:1;stroke-width:1.32078815"
               d="m 223.73372,4138.9513 v 8.2033 h 10.78299 v 3.6889 h -10.78299 v 15.6844 q 0,3.1988 1.21244,4.4627 1.21245,1.2641 4.23065,1.2641 h 5.3399 v 3.7921 h -5.80424 q -5.3399,0 -7.53263,-2.1412 -2.19271,-2.141 -2.19271,-7.3777 v -15.6844 h -7.71319 v -3.6889 h 7.71319 v -8.2033 z" />
            <path
               inkscape:connector-curvature="0"
               id="path887"
               style="font-style:normal;font-variant:normal;font-weight:normal;font-stretch:normal;font-family:monospace;-inkscape-font-specification:monospace;text-align:center;text-anchor:middle;fill:#7f2aff;fill-opacity:1;stroke-width:1.32078815"
               d="m 299.937,4172.8739 q -2.08953,1.9347 -4.72079,2.9408 -2.60546,0.9801 -5.64946,0.9801 -7.32626,0 -11.40211,-5.2366 -4.07587,-5.2625 -4.07587,-14.7298 0,-9.4417 4.12746,-14.7042 4.12746,-5.2883 11.47949,-5.2883 2.42489,0 4.6434,0.6966 2.21852,0.6707 4.28225,2.0637 v 5.3398 q -2.08953,-1.9863 -4.28225,-2.915 -2.19271,-0.9544 -4.6434,-0.9544 -5.08193,0 -7.6358,3.9468 -2.52807,3.9212 -2.52807,11.815 0,8.0227 2.45069,11.8922 2.47648,3.8437 7.58421,3.8437 1.72837,0 3.0182,-0.387 1.31563,-0.4127 2.3733,-1.264 v -10.3444 h -5.59788 v -4.2823 H 299.937 Z" />
            <path
               inkscape:connector-curvature="0"
               id="path889"
               style="font-style:normal;font-variant:normal;font-weight:normal;font-stretch:normal;font-family:monospace;-inkscape-font-specification:monospace;text-align:center;text-anchor:middle;fill:#7f2aff;fill-opacity:1;stroke-width:1.32078815"
               d="m 319.1297,4150.4824 q -3.61152,0 -5.46889,2.8118 -1.85735,2.8118 -1.85735,8.3324 0,5.4945 1.85735,8.3323 1.85737,2.8118 5.46889,2.8118 3.63733,0 5.49469,-2.8118 1.85735,-2.8378 1.85735,-8.3323 0,-5.5206 -1.85735,-8.3324 -1.85736,-2.8118 -5.49469,-2.8118 z m 0,-4.0243 q 6.01061,0 9.1836,3.8953 3.19878,3.8952 3.19878,11.2732 0,7.4035 -3.17298,11.2989 -3.173,3.8693 -9.2094,3.8693 -6.01062,0 -9.1836,-3.8693 -3.17299,-3.8954 -3.17299,-11.2989 0,-7.378 3.17299,-11.2732 3.17298,-3.8953 9.1836,-3.8953 z" />
            <path
               inkscape:connector-curvature="0"
               id="path891"
               style="font-style:normal;font-variant:normal;font-weight:normal;font-stretch:normal;font-family:monospace;-inkscape-font-specification:monospace;text-align:center;text-anchor:middle;fill:#7f2aff;fill-opacity:1;stroke-width:1.32078815"
               d="m 347.63498,4168.1788 h 6.50077 v 7.868 h -6.50077 z" />
          </g>
          <g
             id="g926"
             transform="translate(0.58594)">
            <path
               id="path893"
               style="font-style:normal;font-variant:normal;font-weight:normal;font-stretch:normal;font-family:monospace;-inkscape-font-specification:monospace;text-align:center;text-anchor:middle;fill:#7f2aff;fill-opacity:1"
               d="m 150.03418,4192.0508 h 3.96484 v 25.8398 h 14.08203 v 3.3203 h -18.04687 z"
               inkscape:connector-curvature="0" />
            <path
               id="path895"
               style="font-style:normal;font-variant:normal;font-weight:normal;font-stretch:normal;font-family:monospace;-inkscape-font-specification:monospace;text-align:center;text-anchor:middle;fill:#7f2aff;fill-opacity:1"
               d="m 191.61621,4209.375 v 1.7578 H 176.0498 v 0.1172 q 0,3.5742 1.85547,5.5273 1.875,1.9532 5.27344,1.9532 1.71875,0 3.59375,-0.5469 1.875,-0.5469 4.00391,-1.6602 v 3.5743 q -2.05078,0.8398 -3.96485,1.25 -1.89453,0.4296 -3.67187,0.4296 -5.09766,0 -7.96875,-3.0468 -2.8711,-3.0664 -2.8711,-8.4375 0,-5.2344 2.8125,-8.3594 2.8125,-3.125 7.5,-3.125 4.17969,0 6.58204,2.832 2.42187,2.8321 2.42187,7.7344 z m -3.59375,-1.0547 q -0.0781,-3.1641 -1.50391,-4.8047 -1.40625,-1.6601 -4.0625,-1.6601 -2.59765,0 -4.27734,1.7187 -1.67969,1.7188 -1.99219,4.7656 z"
               inkscape:connector-curvature="0" />
            <path
               id="path897"
               style="font-style:normal;font-variant:normal;font-weight:normal;font-stretch:normal;font-family:monospace;-inkscape-font-specification:monospace;text-align:center;text-anchor:middle;fill:#7f2aff;fill-opacity:1"
               d="m 205.95215,4193.125 v 6.2109 h 8.16406 v 2.793 h -8.16406 v 11.875 q 0,2.4219 0.91797,3.3789 0.91797,0.957 3.20312,0.957 h 4.04297 v 2.8711 h -4.39453 q -4.04297,0 -5.70313,-1.6211 -1.66015,-1.6211 -1.66015,-5.5859 v -11.875 h -5.83985 v -2.793 h 5.83985 v -6.2109 z"
               inkscape:connector-curvature="0" />
            <path
               id="path899"
               style="font-style:normal;font-variant:normal;font-weight:normal;font-stretch:normal;font-family:monospace;-inkscape-font-specification:monospace;text-align:center;text-anchor:middle;fill:#7f2aff;fill-opacity:1"
               d="m 231.7334,4192.0508 v 10.8398 h -3.39844 v -10.8398 z"
               inkscape:connector-curvature="0" />
            <path
               id="path901"
               style="font-style:normal;font-variant:normal;font-weight:normal;font-stretch:normal;font-family:monospace;-inkscape-font-specification:monospace;text-align:center;text-anchor:middle;fill:#7f2aff;fill-opacity:1"
               d="m 261.08887,4200.0977 v 3.5156 q -1.54297,-0.8985 -3.10547,-1.3477 -1.5625,-0.4492 -3.1836,-0.4492 -2.4414,0 -3.65234,0.8008 -1.19141,0.7812 -1.19141,2.4023 0,1.4649 0.89844,2.1875 0.89844,0.7227 4.47266,1.4063 l 1.44531,0.2734 q 2.67578,0.5078 4.04297,2.0313 1.38672,1.5234 1.38672,3.9648 0,3.2422 -2.30469,5.0781 -2.30469,1.8164 -6.40625,1.8164 -1.62109,0 -3.39844,-0.3515 -1.77734,-0.3321 -3.84765,-1.0156 v -3.711 q 2.01172,1.0352 3.84765,1.5625 1.83594,0.5078 3.47657,0.5078 2.38281,0 3.6914,-0.957 1.3086,-0.9766 1.3086,-2.7148 0,-2.5 -4.78516,-3.4571 l -0.15625,-0.039 -1.34766,-0.2735 q -3.10547,-0.6054 -4.53125,-2.0312 -1.42578,-1.4453 -1.42578,-3.9258 0,-3.1445 2.12891,-4.8438 2.1289,-1.7187 6.07422,-1.7187 1.75781,0 3.3789,0.332 1.6211,0.3125 3.1836,0.9571 z"
               inkscape:connector-curvature="0" />
            <path
               id="path903"
               style="font-style:normal;font-variant:normal;font-weight:normal;font-stretch:normal;font-family:monospace;-inkscape-font-specification:monospace;text-align:center;text-anchor:middle;fill:#7f2aff;fill-opacity:1"
               d="m 311.77246,4218.8086 q -1.58203,1.4648 -3.57422,2.2266 -1.97265,0.7421 -4.27734,0.7421 -5.54688,0 -8.63281,-3.9648 -3.08594,-3.9844 -3.08594,-11.1523 0,-7.1485 3.125,-11.1329 3.125,-4.0039 8.6914,-4.0039 1.83594,0 3.51563,0.5274 1.67969,0.5078 3.24219,1.5625 v 4.0429 q -1.58203,-1.5039 -3.24219,-2.207 -1.66016,-0.7226 -3.51563,-0.7226 -3.84765,0 -5.78125,2.9882 -1.91406,2.9688 -1.91406,8.9454 0,6.0742 1.85547,9.0039 1.875,2.9101 5.74219,2.9101 1.30859,0 2.28515,-0.293 0.9961,-0.3125 1.79688,-0.957 v -7.832 h -4.23828 v -3.2422 h 8.00781 z"
               inkscape:connector-curvature="0" />
            <path
               id="path905"
               style="font-style:normal;font-variant:normal;font-weight:normal;font-stretch:normal;font-family:monospace;-inkscape-font-specification:monospace;text-align:center;text-anchor:middle;fill:#7f2aff;fill-opacity:1"
               d="m 326.30371,4201.8555 q -2.73437,0 -4.14062,2.1289 -1.40625,2.1289 -1.40625,6.3086 0,4.1601 1.40625,6.3086 1.40625,2.1289 4.14062,2.1289 2.75391,0 4.16016,-2.1289 1.40625,-2.1485 1.40625,-6.3086 0,-4.1797 -1.40625,-6.3086 -1.40625,-2.1289 -4.16016,-2.1289 z m 0,-3.0469 q 4.55078,0 6.95313,2.9492 2.42187,2.9492 2.42187,8.5352 0,5.6054 -2.40234,8.5547 -2.40235,2.9296 -6.97266,2.9296 -4.55078,0 -6.95312,-2.9296 -2.40235,-2.9493 -2.40235,-8.5547 0,-5.586 2.40235,-8.5352 2.40234,-2.9492 6.95312,-2.9492 z"
               inkscape:connector-curvature="0" />
            <path
               id="path907"
               style="font-style:normal;font-variant:normal;font-weight:normal;font-stretch:normal;font-family:monospace;-inkscape-font-specification:monospace;text-align:center;text-anchor:middle;fill:#7f2aff;fill-opacity:1"
               d="m 347.88574,4215.2539 h 4.92188 v 5.957 h -4.92188 z"
               inkscape:connector-curvature="0" />
          </g>
        </g>
      </g>
    </g>
  </g>
</svg>
