<?xml version="1.0" encoding="UTF-8" standalone="no"?>
<!-- Created with Inkscape (http://www.inkscape.org/) -->

<svg
   xmlns:dc="http://purl.org/dc/elements/1.1/"
   xmlns:cc="http://creativecommons.org/ns#"
   xmlns:rdf="http://www.w3.org/1999/02/22-rdf-syntax-ns#"
   xmlns:svg="http://www.w3.org/2000/svg"
   xmlns="http://www.w3.org/2000/svg"
   xmlns:sodipodi="http://sodipodi.sourceforge.net/DTD/sodipodi-0.dtd"
   xmlns:inkscape="http://www.inkscape.org/namespaces/inkscape"
   width="451.5787mm"
   height="261.71033mm"
   viewBox="0 0 1600.082 927.32005"
   id="svg2"
   version="1.1"
   inkscape:version="0.91 r13725"
   sodipodi:docname="btsu.svg">
  <defs
     id="defs4" />
  <sodipodi:namedview
     id="base"
     pagecolor="#ffffff"
     bordercolor="#666666"
     borderopacity="1.0"
     inkscape:pageopacity="0.0"
     inkscape:pageshadow="2"
     inkscape:zoom="0.35"
     inkscape:cx="550.76884"
     inkscape:cy="720.0598"
     inkscape:document-units="px"
     inkscape:current-layer="layer2"
     showgrid="false"
     inkscape:window-width="1920"
     inkscape:window-height="1016"
     inkscape:window-x="0"
     inkscape:window-y="27"
     inkscape:window-maximized="1"
     fit-margin-top="0"
     fit-margin-left="0"
     fit-margin-right="0"
     fit-margin-bottom="0" />
  <metadata
     id="metadata7">
    <rdf:RDF>
      <cc:Work
         rdf:about="">
        <dc:format>image/svg+xml</dc:format>
        <dc:type
           rdf:resource="http://purl.org/dc/dcmitype/StillImage" />
        <dc:title></dc:title>
        <cc:license
           rdf:resource="http://creativecommons.org/licenses/by/3.0/" />
      </cc:Work>
      <cc:License
         rdf:about="http://creativecommons.org/licenses/by/3.0/">
        <cc:permits
           rdf:resource="http://creativecommons.org/ns#Reproduction" />
        <cc:permits
           rdf:resource="http://creativecommons.org/ns#Distribution" />
        <cc:requires
           rdf:resource="http://creativecommons.org/ns#Notice" />
        <cc:requires
           rdf:resource="http://creativecommons.org/ns#Attribution" />
        <cc:permits
           rdf:resource="http://creativecommons.org/ns#DerivativeWorks" />
      </cc:License>
    </rdf:RDF>
  </metadata>
  <g
     inkscape:label="Layer 1"
     inkscape:groupmode="layer"
     id="layer1"
     transform="translate(560.63477,316.39449)" />
  <g
     inkscape:groupmode="layer"
     id="layer2"
     inkscape:label="Layer 2"
     transform="translate(560.63477,316.39449)">
    <path
       style="fill:#afe9dd;fill-rule:evenodd;stroke:none;stroke-width:1px;stroke-linecap:butt;stroke-linejoin:miter;stroke-opacity:1"
       d="m 328.29883,40.189453 -750.54297,41.416016 -5.05078,320.218751 -129.29883,5.05078 -4.04102,181.82812 L 1039.4473,601.83398 1025.3047,91.707031 331.33008,123.02148 328.29883,40.189453 Z M 220.43945,209.20898 c 8.4,0 14.88,2.56008 20,8.08008 5.2,5.6 8.16016,13.75891 8.16016,22.87891 0,8.24 -3.12016,16.72008 -8.16016,22.08008 -5.04,5.44 -11.59992,8.08007 -19.91992,8.08007 -8.32,0 -14.87992,-2.64007 -19.91992,-8.08007 -5.2,-5.52 -8.16016,-13.75852 -8.16016,-22.47852 0,-8.72 2.96016,-16.88047 8.16016,-22.48047 4.96,-5.36 11.67984,-8.08008 19.83984,-8.08008 z m 377.8125,0 c 8.4,0 14.88,2.56008 20,8.08008 5.2,5.6 8.16016,13.75891 8.16016,22.87891 0,8.24 -3.12016,16.72008 -8.16016,22.08008 -5.04,5.44 -11.59992,8.08007 -19.91992,8.08007 -8.32,0 -14.87992,-2.64007 -19.91992,-8.08007 -5.2,-5.52 -8.16016,-13.75852 -8.16016,-22.47852 0,-8.72 2.96016,-16.88047 8.16016,-22.48047 4.96,-5.36 11.67984,-8.08008 19.83984,-8.08008 z m 176.82422,0 c 8.4,0 14.88078,2.32063 18.80078,6.64063 2.88,3.2 4.08008,6.72008 4.08008,12.08008 l -11.20117,0 c -0.4,-5.92 -4.64023,-9.1211 -12.24024,-9.1211 -6.15999,0 -10.08007,2.80118 -10.08007,7.20118 0,4.24 2.48101,5.9196 11.04101,7.59961 l 9.11914,1.75976 c 10.8,2.08 15.44141,6.88008 15.44141,16.08008 0,11.84 -8.87992,18.8789 -23.91992,18.8789 -14.88,0 -23.44016,-6.79929 -24.16016,-19.27929 l 11.67969,0 c 0.4,6.24 4.95914,9.67969 13.11914,9.67969 7.28,0 11.75976,-2.95985 11.75976,-7.83985 0,-4.72 -2.95898,-6.96047 -10.95898,-8.48047 l -8.16016,-1.59961 c -11.84,-2.24 -16.40039,-6.63968 -16.40039,-15.67968 0,-11.36 8.08008,-17.91993 22.08008,-17.91993 z m 58.95703,0 c 8.4,0 14.88,2.56008 20,8.08008 5.2,5.6 8.16016,13.75891 8.16016,22.87891 0,8.24 -3.12016,16.72008 -8.16016,22.08008 -5.04,5.44 -11.59992,8.08007 -19.91992,8.08007 -8.32,0 -14.87992,-2.64007 -19.91992,-8.08007 -5.2,-5.52 -8.16016,-13.75852 -8.16016,-22.47852 0,-8.72 2.96016,-16.88047 8.16016,-22.48047 4.96,-5.36 11.67984,-8.08008 19.83984,-8.08008 z m -696.04492,0.95899 26,0 c 6.24,0 10.31977,1.28023 13.75977,4.24023 3.28,2.88 5.27929,7.1211 5.27929,11.1211 0,4.96 -2.24,8.32 -8,12 6.56,3.84 9.67969,8.40015 9.67969,14.16015 0,4.64 -2.23976,9.5986 -5.75976,12.5586 -3.52,2.96 -7.99875,4.24023 -14.71875,4.24023 l -26.24024,0 0,-58.32031 z m 114.47852,0 12.7207,0 9.04102,43.68164 9.03906,-43.68164 11.83984,0 9.43946,43.76172 8.7207,-43.76172 12.7207,0 -16.16016,58.32031 -10.80078,0 -9.75976,-45.51953 -9.51953,45.51953 -10.80078,0 -16.48047,-58.32031 z m 80.75,0 42.16015,0 0,10 -30.16015,0 0,13.20117 27.91992,0 0,10 -27.91992,0 0,15.11914 31.59961,0 0,10 -43.59961,0 0,-58.32031 z m 52.55664,0 12.32031,0 23.12109,39.68164 0,-39.68164 12,0 0,58.32031 -12,0 -23.4414,-40.32031 0,40.32031 -12,0 0,-58.32031 z m 75.67968,0 46.72071,0 0,10 -17.03906,0 0,48.32031 -12,0 0,-48.32031 -17.68165,0 0,-10 z m 53.22657,0 12,0 0,21.8418 23.04101,0 0,-21.8418 12.08008,0 0,58.32031 -12,0 0,-26.47851 -23.12109,0 0,26.47851 -12,0 0,-58.32031 z m 119.83984,0 17.91992,0 10.56055,46.40039 10.24023,-46.40039 18.08008,0 0,58.32031 -12,0 0,-45.43945 L 669,268.48828 l -12,0 -10.48047,-45.43945 0,45.43945 -12,0 0,-58.32031 z m 67.51953,0 25.75977,0 c 12.16,0 18.80078,6.40008 18.80078,18.08008 0,11.84 -6.88156,19.4414 -17.60156,19.4414 l -14.95899,0 0,20.79883 -12,0 0,-58.32031 z m 168.42188,0 12.32031,0 23.12109,39.68164 0,-39.68164 12,0 0,58.32031 -12,0 -23.4414,-40.32031 0,40.32031 -12,0 0,-58.32031 z m -649.94141,9.28125 c -9.68,0 -16.08008,8.08031 -16.08008,20.32031 0,12.24 6.40008,20.31836 16.08008,20.31836 9.6,0 16.08008,-8.08 16.08008,-20 0,-12.64 -6.24008,-20.63867 -16.08008,-20.63867 z m 377.8125,0 c -9.68,0 -16.08008,8.08031 -16.08008,20.32031 0,12.24 6.40008,20.31836 16.08008,20.31836 9.6,0 16.08008,-8.08 16.08008,-20 0,-12.64 -6.24008,-20.63867 -16.08008,-20.63867 z m 235.78125,0 c -9.68,0 -16.08008,8.08031 -16.08008,20.32031 0,12.24 6.40008,20.31836 16.08008,20.31836 9.6,0 16.08008,-8.08 16.08008,-20 0,-12.64 -6.24008,-20.63867 -16.08008,-20.63867 z m -684.125,0.71875 0,13.20117 13.03906,0 c 5.52,0 8.48047,-2.32055 8.48047,-6.56055 0,-4.32 -2.96047,-6.64062 -8.48047,-6.64062 l -13.03906,0 z m 564.05078,0 0,17.52148 11.19922,0 c 6.4,0 9.36133,-2.8007 9.36133,-8.7207 0,-6 -2.96133,-8.80078 -9.36133,-8.80078 l -11.19922,0 z m -564.05078,23.20117 0,15.11914 14.32031,0 c 5.84,0 8.87891,-2.63953 8.87891,-7.51953 0,-4.96 -3.03891,-7.59961 -8.87891,-7.59961 l -14.32031,0 z m 7.11914,65.83984 c 8.4,0 14.88078,2.32063 18.80078,6.64063 2.88,3.2 4.08008,6.72008 4.08008,12.08008 l -11.20117,0 c -0.4,-5.92 -4.64024,-9.1211 -12.24023,-9.1211 -6.16,0 -10.08008,2.80118 -10.08008,7.20118 0,4.24 2.48101,5.9196 11.04101,7.59961 l 9.11914,1.75976 c 10.8,2.08 15.44141,6.88008 15.44141,16.08008 0,11.84 -8.87992,18.8789 -23.91992,18.8789 -14.88,0 -23.44016,-6.79929 -24.16016,-19.27929 l 11.67969,0 c 0.4,6.24 4.95914,9.67969 13.11914,9.67969 7.28,0 11.75977,-2.95985 11.75977,-7.83985 0,-4.72 -2.95899,-6.96047 -10.95899,-8.48047 l -8.16016,-1.59961 c -11.84,-2.24 -16.40039,-6.63968 -16.40039,-15.67968 0,-11.36 8.08008,-17.91993 22.08008,-17.91993 z m 543.64453,0 c 8.4,0 14.88,2.56008 20,8.08008 5.2,5.6 8.16016,13.75891 8.16016,22.87891 0,8.24 -3.12016,16.72008 -8.16016,22.08008 -5.04,5.44 -11.59992,8.08007 -19.91992,8.08007 -8.32,10e-6 -14.87992,-2.64007 -19.91992,-8.08007 -5.2,-5.52 -8.16016,-13.75852 -8.16016,-22.47852 0,-8.72 2.96016,-16.88047 8.16016,-22.48047 4.96,-5.36 11.67984,-8.08008 19.83984,-8.08008 z m -514.76757,0.95899 46.7207,0 0,10 -17.03906,0 0,48.32031 -12,0 0,-48.32031 -17.68164,0 0,-10 z m 53.86718,0 12,0 0,39.52148 c 0,7.04 3.59914,10.39844 11.11914,10.39844 7.52,0 11.1211,-3.35844 11.1211,-10.39844 l 0,-39.52148 12,0 0,39.52148 c 0,6.56 -1.75969,11.19875 -5.67969,14.71875 -4.24,3.84 -10.40141,5.91992 -17.44141,5.91992 -7.04,0 -13.19945,-2.07992 -17.43945,-5.91992 -3.92,-3.52 -5.67969,-8.15875 -5.67969,-14.71875 l 0,-39.52148 z m 57.89258,0 22.80078,0 c 8.96,0 14.47844,2.0007 18.39844,6.7207 4.64,5.52 7.12109,13.44039 7.12109,22.40039 0,9.04 -2.48109,16.96039 -7.12109,22.40039 -3.92,4.72 -9.51844,6.79883 -18.39844,6.79883 l -22.80078,0 0,-58.32031 z m 57.97266,0 42.16015,0 0,10 -30.16015,0 0,13.20117 27.91992,0 0,10 -27.91992,0 0,15.11914 31.59961,0 0,10 -43.59961,0 0,-58.32031 z m 52.55664,0 12.32031,0 23.12109,39.68164 0,-39.68164 12,0 0,58.32031 -12,0 -23.4414,-40.32031 0,40.32031 -12,0 0,-58.32031 z m 53.49218,0 46.72071,0 0,10 -17.03906,0 0,48.32031 -12,0 0,-48.32031 -17.68165,0 0,-10 z m 76.05469,0 12,0 0,39.52148 c 0,7.04 3.59914,10.39844 11.11914,10.39844 7.52,0 11.1211,-3.35844 11.1211,-10.39844 l 0,-39.52148 12,0 0,39.52148 c 0,6.56 -1.75969,11.19875 -5.67969,14.71875 -4.24,3.84 -10.40141,5.91992 -17.44141,5.91992 -7.04,0 -13.19945,-2.07992 -17.43945,-5.91992 -3.92,-3.52 -5.67969,-8.15875 -5.67969,-14.71875 l 0,-39.52148 z m 57.17188,0 12.32031,0 23.12109,39.68164 0,-39.68164 12,0 0,58.32031 -12,0 -23.4414,-40.32031 0,40.32031 -12,0 0,-58.32031 z m 57.41211,0 12,0 0,58.32031 -12,0 0,-58.32031 z m 84.77539,0 12.32031,0 23.12109,39.68164 0,-39.68164 12,0 0,58.32031 -12,0 -23.4414,-40.32031 0,40.32031 -12,0 0,-58.32031 z m -36.34766,9.28125 c -9.68,0 -16.08008,8.08031 -16.08008,20.32031 0,12.24 6.40008,20.31836 16.08008,20.31836 9.6,0 16.08008,-8.08 16.08008,-20 0,-12.64 -6.24008,-20.63867 -16.08008,-20.63867 z m -391.08789,0.71875 0,38.32031 10.80078,0 c 9.04,0 13.51953,-6.31914 13.51953,-19.11914 0,-12.88 -4.47953,-19.20117 -13.51953,-19.20117 l -10.80078,0 z"
       id="path4148"
       inkscape:connector-curvature="0" />
    <path
       style="fill:#ffccaa;fill-rule:evenodd;stroke:none;stroke-width:1px;stroke-linecap:butt;stroke-linejoin:miter;stroke-opacity:1"
       d="m 68.690373,610.92554 1.010153,-927.32003 -151.522882,16.16244 -43.436564,908.12713 z"
       id="path4150"
       inkscape:connector-curvature="0" />
    <path
       style="fill:#afe9dd;fill-opacity:1;fill-rule:evenodd;stroke:none;stroke-width:1px;stroke-linecap:butt;stroke-linejoin:miter;stroke-opacity:1"
       d="m 25.253814,356.3671 3.030457,-77.78175 -67.68022,1.01016 0,77.78174 z"
       id="path4152"
       inkscape:connector-curvature="0" />
    <circle
       style="fill:#f2f2f2;fill-opacity:1;stroke:none;stroke-width:0.5;stroke-linecap:round;stroke-linejoin:round;stroke-miterlimit:4;stroke-dasharray:none;stroke-opacity:1"
       id="path4154"
       cx="-14.647212"
       cy="-93.655861"
       r="46.972092" />
  </g>
</svg>
