<?xml version="1.0" encoding="UTF-8" standalone="no"?>
<!-- Created with Inkscape (http://www.inkscape.org/) -->

<svg
   xmlns:dc="http://purl.org/dc/elements/1.1/"
   xmlns:cc="http://creativecommons.org/ns#"
   xmlns:rdf="http://www.w3.org/1999/02/22-rdf-syntax-ns#"
   xmlns:svg="http://www.w3.org/2000/svg"
   xmlns="http://www.w3.org/2000/svg"
   xmlns:sodipodi="http://sodipodi.sourceforge.net/DTD/sodipodi-0.dtd"
   xmlns:inkscape="http://www.inkscape.org/namespaces/inkscape"
   width="210mm"
   height="297mm"
   viewBox="0 0 744.09448819 1052.3622047"
   id="svg2"
   version="1.1"
   inkscape:version="0.91 r13725"
   sodipodi:docname="person.svg">
  <defs
     id="defs4" />
  <sodipodi:namedview
     id="base"
     pagecolor="#ffffff"
     bordercolor="#666666"
     borderopacity="1.0"
     inkscape:pageopacity="0.0"
     inkscape:pageshadow="2"
     inkscape:zoom="15.839192"
     inkscape:cx="227.49245"
     inkscape:cy="473.07899"
     inkscape:document-units="px"
     inkscape:current-layer="layer1"
     showgrid="true"
     inkscape:window-width="1920"
     inkscape:window-height="1016"
     inkscape:window-x="0"
     inkscape:window-y="27"
     inkscape:window-maximized="1">
    <inkscape:grid
       type="xygrid"
       id="grid4136" />
  </sodipodi:namedview>
  <metadata
     id="metadata7">
    <rdf:RDF>
      <cc:Work
         rdf:about="">
        <dc:format>image/svg+xml</dc:format>
        <dc:type
           rdf:resource="http://purl.org/dc/dcmitype/StillImage" />
        <dc:title></dc:title>
      </cc:Work>
    </rdf:RDF>
  </metadata>
  <g
     inkscape:label="Layer 1"
     inkscape:groupmode="layer"
     id="layer1">
    <path
       style="fill:none;fill-rule:evenodd;stroke:#000000;stroke-width:1px;stroke-linecap:butt;stroke-linejoin:miter;stroke-opacity:1"
       d="m 200,622.3622 0,-30 c 0,0 0,-10 10,-10 10,0 30,0 30,0 0,0 10,0 10,10 0,10 0,30 0,30 0,0 -1,0 -1,1 0,1 1,1 1,1 0,0 1,0 1,-1 0,-1 -1,-1 -1,-1"
       id="path4138"
       inkscape:connector-curvature="0" />
    <circle
       style="fill:#ffffff;fill-opacity:1;stroke:#000000;stroke-width:1;stroke-linecap:round;stroke-linejoin:round;stroke-miterlimit:4;stroke-dasharray:none;stroke-opacity:1"
       id="path4140"
       cx="225"
       cy="572.36218"
       r="15" />
    <path
       style="fill:none;fill-rule:evenodd;stroke:#000000;stroke-width:1px;stroke-linecap:butt;stroke-linejoin:miter;stroke-opacity:1"
       d="m 212,564.3622 33,0"
       id="path4173"
       inkscape:connector-curvature="0" />
    <path
       style="fill:none;fill-rule:evenodd;stroke:#000000;stroke-width:1px;stroke-linecap:butt;stroke-linejoin:miter;stroke-opacity:1"
       d="m 210,582.3622 c 0,0 0,10 15,10 15,0 15,-10 15,-10"
       id="path4179"
       inkscape:connector-curvature="0" />
    <g
       id="g4193"
       transform="translate(0.17021,-0.88092238)">
      <path
         inkscape:connector-curvature="0"
         id="path4142"
         d="m 219.82979,575.3622 10,0 c 0,0 0,4 -5,4 -5,0 -5,-4 -5,-4 z"
         style="fill:none;fill-rule:evenodd;stroke:#000000;stroke-width:1px;stroke-linecap:butt;stroke-linejoin:miter;stroke-opacity:1" />
      <path
         inkscape:connector-curvature="0"
         id="path4189"
         d="m 214.76181,569.74212 c 0,0 0,-2.61811 2.61811,-2.61811 2.6181,0 2.6181,2.61811 2.6181,2.61811"
         style="fill:none;fill-rule:evenodd;stroke:#000000;stroke-width:1;stroke-linecap:butt;stroke-linejoin:miter;stroke-miterlimit:4;stroke-dasharray:none;stroke-opacity:1" />
      <path
         style="fill:none;fill-rule:evenodd;stroke:#000000;stroke-width:1;stroke-linecap:butt;stroke-linejoin:miter;stroke-miterlimit:4;stroke-dasharray:none;stroke-opacity:1"
         d="m 229.66156,569.74212 c 0,0 0,-2.61811 2.61811,-2.61811 2.6181,0 2.6181,2.61811 2.6181,2.61811"
         id="path4191"
         inkscape:connector-curvature="0" />
    </g>
    <path
       sodipodi:type="star"
       style="fill:#ffffff;fill-opacity:1;stroke:#000000;stroke-width:1;stroke-linecap:round;stroke-linejoin:round;stroke-miterlimit:4;stroke-dasharray:none;stroke-opacity:1"
       id="path4246"
       sodipodi:sides="5"
       sodipodi:cx="239"
       sodipodi:cy="581.36218"
       sodipodi:r1="2.8284271"
       sodipodi:r2="1.4142137"
       sodipodi:arg1="0.78539816"
       sodipodi:arg2="1.4137167"
       inkscape:flatsided="false"
       inkscape:rounded="0"
       inkscape:randomized="0"
       d="m 241,583.36218 -1.77877,-0.6032 -1.50531,1.12335 0.024,-1.87811 -1.53353,-1.0845 1.7936,-0.55754 0.55754,-1.7936 1.0845,1.53353 1.87811,-0.024 -1.12335,1.50531 z"
       inkscape:transform-center-x="0.13672874"
       inkscape:transform-center-y="-0.13672874" />
  </g>
</svg>
