<?xml version="1.0" encoding="UTF-8"?>
<!-- Created with Inkscape (http://www.inkscape.org/) -->
<svg width="358.44mm" height="307.16mm" version="1.1" viewBox="0 0 358.44116 307.16107" xmlns="http://www.w3.org/2000/svg" xmlns:cc="http://creativecommons.org/ns#" xmlns:dc="http://purl.org/dc/elements/1.1/" xmlns:rdf="http://www.w3.org/1999/02/22-rdf-syntax-ns#">
 <metadata>
  <rdf:RDF>
   <cc:Work rdf:about="">
    <dc:format>image/svg+xml</dc:format>
    <dc:type rdf:resource="http://purl.org/dc/dcmitype/StillImage"/>
    <dc:title/>
   </cc:Work>
  </rdf:RDF>
 </metadata>
 <g transform="translate(73.892 2.8205)">
  <path d="m-46.332 304.07c-0.06198-0.15134-0.25231-0.52281-0.42297-0.8255-2.1189-3.7581-3.972-10.718-4.9818-18.711-0.68735-5.4408-0.82789-11.747-0.38879-17.447 0.35079-4.5529 0.93164-8.7604 1.8264-13.23 1.0543-5.2665 2.3316-9.3587 3.5877-11.495 0.20315-0.34544 0.3606-0.63761 0.3499-0.64927-0.0107-0.0117-0.37822 0.12607-0.8167 0.30605-4.0884 1.6782-9.5261 4.5376-13.836 7.2757-4.4793 2.8458-9.1818 6.5388-10.633 8.3504-0.67373 0.8412-0.65085 0.82287-0.99157 0.79446-0.26486-0.0221-0.3395-0.0768-0.49761-0.36466-0.3117-0.56752-0.61669-1.7851-0.70815-2.827-0.37581-4.2814 1.4756-10.847 5.1717-18.34 3.0829-6.2497 6.334-10.885 10.918-15.567 6.8685-7.0149 15.55-12.694 25.146-16.45 8.4462-3.3062 17.613-5.3536 30.226-6.7509 1.8351-0.2033 2.6062-0.2825 4.6143-0.47403 0.51223-0.0488 1.1218-0.10751 1.3547-0.13034 0.23283-0.0229 2.2521-0.19346 4.4873-0.37915 2.2352-0.18569 4.826-0.41549 5.7573-0.51067 5.2608-0.53765 6.6926-1.1024 8.6016-3.3927l0.77628-0.93131-0.05563-0.48208c-0.17272-1.497-0.90015-5.5399-1.4578-8.1021-1.1175-5.1347-2.9553-11.356-4.7898-16.214-0.64706-1.7135-2.1381-5.3528-2.6785-6.5375l-0.25932-0.56853-1.296-0.64871c-5.2379-2.6217-10.128-5.948-14.673-9.9799-5.2761-4.6805-8.5937-9.6103-8.5937-12.77 0-0.7061 0.1475-1.2853 0.44327-1.7406 0.1105-0.1701 0.27138-0.49978 0.35752-0.73261 0.56703-1.5326 2.1283-4.5391 3.5305-6.7986 3.2338-5.2111 6.9486-9.7778 12.345-15.176 6.1658-6.1683 12.338-11.199 21.75-17.727 5.399-3.745 13.451-8.7161 18.385-11.351 0.76835-0.41028 1.6296-0.87223 1.9139-1.0266s0.91294-0.5983 1.397-0.98663c12.741-10.221 28.283-16.565 44.526-18.174 3.2355-0.32048 4.5689-0.3811 8.382-0.3811 3.8131 0 5.1465 0.06062 8.382 0.3811 16.354 1.6198 31.991 8.0343 44.746 18.355 2.2707 1.8373 4.0284 3.4124 6.35 5.6904 1.382 1.356 1.6554 1.587 1.9403 1.6391 0.42491 0.07762 1.3877 0.46034 2.2549 0.89638 4.7816 2.4042 14.476 9.9839 26.623 20.816 8.7618 7.8133 13.825 12.949 17.749 18.001 3.343 4.3049 5.6956 7.911 6.6863 10.248 0.7786 1.8371 0.98124 2.7559 0.71524 3.2428-0.0675 0.1236-0.1843 0.54559-0.25952 0.93776-0.38958 2.0311-1.9332 4.8108-4.2941 7.7324-3.3979 4.205-10.654 10.936-15.855 14.708-2.4457 1.7737-4.4023 2.9604-7.1911 4.3617l-1.6878 0.84807-0.49396 1.1853c-1.4345 3.4424-2.8123 7.4432-3.9945 11.599-0.33343 1.1722-1.2792 4.9445-1.4518 5.7908l-0.0586 0.2875 0.32694-0.0519c0.40146-0.0637 1.6501-0.20601 2.7823-0.31717 9.734-0.95562 19.071-0.73053 29.803 0.71847 16.916 2.284 32.784 7.9836 45.155 16.218 4.8365 3.2195 8.854 6.6022 12.66 10.66 5.6362 6.0085 9.4261 11.299 10.944 15.276 0.38965 1.021 0.38131 1.2072-0.0523 1.1679-0.07-6e-3 -0.16527 0.075-0.21166 0.18076-0.13465 0.30697-0.44133 0.29102-0.79304-0.0412-1.1259-1.0635-3.9466-2.7894-6.8104-4.1669-5.1966-2.4996-12.76-5.1486-21.141-7.4043-1.9217-0.51725-4.1972-1.0949-4.5297-1.15l-0.33867-0.0561 0.29633 0.2395c3.1164 2.5187 5.5274 5.8198 8.8332 12.094 4.888 9.277 12.007 27.747 15.37 39.878 2.3846 8.6007 3.9393 17.39 4.3285 24.469 0.0486 0.88477 0.12509 1.8563 0.16991 2.159 0.17548 1.1852 0.0489 2.1947-0.30421 2.4261-0.26747 0.17526-0.40717 0.0634-0.67391-0.53977-1.9737-4.4628-9.7392-13.748-17.268-20.646-3.2714-2.9977-8.575-7.153-12.49-9.786-1.596-1.0733-5.045-3.222-6.9403-4.3237-11.21-6.5163-22.889-11.24-36.788-14.878-3.3365-0.87334-5.4985-1.388-9.779-2.328-3.2698-0.71801-8.6772-1.7308-12.658-2.3708-2.9675-0.47714-3.3409-0.53389-5.842-0.8879-2.0384-0.28852-3.3593-0.45819-7.2813-0.93534-1.9372-0.23567-4.3911-0.48791-7.366-0.75719-7.1429-0.64652-12.077-0.81508-17.209-0.58788-2.1024 0.0931-2.2322 0.0901-2.3918-0.0544-0.0928-0.084-0.16881-0.18555-0.16881-0.22562 0-0.0401-0.13574-0.2773-0.30166-0.52718-0.74653-1.1244-1.461-3.6368-1.8926-6.6551-0.27432-1.9186-0.37503-3.5691-0.37713-6.1807-2e-3 -2.4007 0.0505-3.3138 0.33713-5.8704 0.0722-0.64427 0.11315-1.1896 0.0909-1.2118-0.0222-0.0222-0.39257 0.13649-0.82302 0.35267-2.4137 1.2122-6.4174 2.8516-9.6067 3.9336-7.0384 2.3879-13.623 3.7131-21.548 4.3365-0.89234 0.0702-2.9416 0.1099-5.6727 0.1099-4.8607 0-6.6913-0.10764-10.88-0.63974-6.3483-0.80651-13.595-2.6361-19.368-4.8901-0.67693-0.2643-1.0795-0.3829-1.0795-0.31802 0 0.0569 0.09744 0.42451 0.21654 0.81689 0.45418 1.4963 1.2082 4.7726 1.5964 6.9364 0.61802 3.4446 0.49435 5.6233-0.39046 6.8792-0.09022 0.12806-0.1943 0.23284-0.23128 0.23284-0.03698 0-0.34872-0.2789-0.69273-0.61979-1.2884-1.2767-5.1591-4.2202-8.3725-6.367-6.3923-4.2705-15.331-8.7867-21.421-10.822-5.221-1.7453-9.3063-2.362-14.605-2.2046-3.7515 0.11145-4.605 0.0984-4.9276-0.0756-0.14903-0.0804-0.40154-0.1461-0.56114-0.1461-0.16008 0-0.3395-0.0594-0.40021-0.13259-0.09399-0.11325-0.06002-0.17832 0.23278-0.44597 0.80996-0.74038 1.6193-3.0749 2.0912-6.0318 0.61645-3.8629 0.73271-9.6081 0.304-15.022-0.13122-1.657-0.34307-3.8813-0.38068-3.9969-0.0183-0.0562-0.38776 0.24856-0.82103 0.67734-0.83424 0.82559-1.3379 1.166-2.4107 1.6296-1.829 0.79033-4.0725 1.126-11.542 1.7267-2.2974 0.18478-5.1659 0.42993-5.9902 0.51193-0.47731 0.0475-1.2774 0.12604-1.778 0.17457-16.378 1.5879-27.575 4.2673-37.571 8.991-9.0139 4.2595-17.128 10.429-23.081 17.548-3.1755 3.7978-5.7309 7.7409-8.2854 12.785-2.7037 5.3384-4.339 10.012-4.8753 13.933-0.1527 1.1165-0.13951 3.7218 0.02091 4.13 0.07231 0.18401 0.10694 0.14945 0.46644-0.46567 0.94442-1.616 3.2491-3.9053 6.3328-6.2908 2.6177-2.0249 5.022-3.5336 8.0192-5.0321 4.0144-2.007 8.556-3.7766 10.988-4.2816 1.3691-0.28423 1.2992-0.28381 1.5735-0.01 0.37997 0.37996 0.41864 0.18301-0.80756 4.1122-1.1522 3.6921-2.4214 9.693-3.1695 14.986-0.50877 3.5996-0.77228 6.3841-0.948 10.017-0.11162 2.3077-0.05918 9.1767 0.08544 11.192 0.51618 7.1931 1.4801 13.275 2.8516 17.992 0.51364 1.7665 0.7955 2.4649 0.7955 1.971 0-0.69152 0.95575-3.3654 1.9477-5.4492 5.177-10.875 17.302-23.721 32.093-34.002 16.438-11.425 35.714-19.369 54.944-22.641 5.0423-0.85801 9.3067-1.2635 14.309-1.3607 5.0571-0.0982 8.9565 0.26268 10.706 0.99086 0.65336 0.272 0.81589 0.44918 0.60526 0.65982-0.11058 0.11056-0.20278 0.10929-0.78627-0.0109-2.308-0.47538-8.8319-0.40528-14.504 0.15583-2.0045 0.19829-4.2136 0.46684-5.588 0.67929-19.278 2.9799-36.75 9.4115-52.959 19.495-12.769 7.9438-24.07 17.985-31.555 28.039-3.5836 4.8134-6.2622 9.8104-7.9425 14.817-0.24225 0.72179-0.4759 1.379-0.51921 1.4605-0.12822 0.24124-0.37866 0.17809-0.5036-0.127zm324.88-5.238c-0.14962-1.0619-0.24693-1.7076-0.59823-3.9695-0.16314-1.0503-0.65387-3.6945-1.0607-5.715-2.6102-12.965-6.9286-26.741-13.27-42.333-3.505-8.6179-7.5046-16.595-10.366-20.675-1.2086-1.7233-2.0845-2.7611-3.7286-4.4176-0.89522-0.90197-1.6513-1.7143-1.6801-1.8052-0.0839-0.2642 0.20037-0.51647 0.51123-0.45373 0.14075 0.0284 0.88455 0.12333 1.6529 0.21094 1.7001 0.19388 2.5994 0.33166 4.7302 0.72471 5.0674 0.93476 8.6287 1.8272 12.542 3.1428 7.0436 2.3682 13.014 5.4977 15.763 8.2622l0.73486 0.73905-0.17464-0.39479c-0.61163-1.3827-2.5042-4.2043-4.4166-6.5847-3.1803-3.9586-8.0144-8.8935-11.865-12.112-7.2951-6.0981-16.509-11.316-26.882-15.223-10.61-3.9964-22.938-6.5225-35.602-7.2955-5.5804-0.34063-10.499-0.35116-17.06-0.0365-1.886 0.0904-3.891 0.16454-4.4556 0.16468h-1.0266l-0.0574 0.27517c-0.0316 0.15134-0.13369 0.67522-0.22691 1.1642-2.18 11.435-2.7332 20.43-1.5908 25.866 0.0979 0.46567 0.25736 1.0093 0.35441 1.2081 0.21495 0.44023 0.13499 0.7958-0.19565 0.87-0.11539 0.0259-0.49555 0.18466-0.8448 0.3528-0.34925 0.16815-1.2622 0.48367-2.0288 0.70117-3.7724 1.0703-6.1758 1.9952-10.338 3.9781-8.3223 3.9651-19.243 11.494-23.502 16.202-0.43569 0.48164-0.79217 0.90515-0.79217 0.94114 0 0.036 0.25718-6e-3 0.5715-0.0935 0.89137-0.24788 2.8444-0.47695 4.9742-0.58343 5.1582-0.25787 15.208 0.50984 26.628 2.0341 1.1967 0.15974 2.4703 0.342 5.0377 0.72098 7.8449 1.158 18.156 3.2765 25.612 5.2623 15.771 4.2003 28.404 9.6001 40.64 17.371 4.7261 3.0013 9.4144 6.5738 14.011 10.676 1.3617 1.2154 5.1066 4.9351 6.4026 6.3596 4.8974 5.3828 9.1362 11.09 11.093 14.936 0.73345 1.4414 0.76898 1.4082 0.50431-0.4704zm-135.67-57.669c1.1361-1.7127 4.5057-5.0308 7.6859-7.5684 4.2103-3.3597 9.4959-6.7033 14.757-9.3352 5.9119-2.9575 9.9408-4.352 13.491-4.6695l1.1549-0.10328-0.24855-0.72938c-1.16-3.404-1.449-9.0512-0.82812-16.181 0.17045-1.9573 0.43979-4.497 0.58812-5.5457 0.71842-5.0791 1.1549-7.5624 1.8601-10.583 1.3993-5.9942 3.6444-12.576 6.2667-18.372 0.99027-2.1887 2.9598-6.0677 4.2563-8.3826 2.1499-3.8387 4.7338-7.6248 6.391-9.3646l0.37145-0.38995-0.66211-0.31889c-7.3141-3.5227-24.144-7.8602-38.913-10.029-5.2453-0.77023-9.3473-1.2978-13.205-1.6982-0.45402-0.0471-1.1798-0.12272-1.6128-0.16797-3.1439-0.32852-7.3476-0.66993-12.505-1.0156-2.0517-0.13751-7.784-0.41121-11.091-0.52956-4.0383-0.14452-19.65-0.14327-23.41 2e-3 -8.6035 0.33205-14.584 0.7052-20.616 1.2864-0.48895 0.0471-1.3081 0.12525-1.8203 0.17364-1.0016 0.0946-3.6314 0.35988-4.9742 0.50171-0.45402 0.048-1.1936 0.12566-1.6435 0.17266-0.44992 0.047-1.3167 0.14439-1.9262 0.21641-0.60946 0.072-1.4129 0.16645-1.7855 0.20983-3.9648 0.46165-9.7151 1.3231-14.182 2.1246-1.0478 0.18801-2.2098 0.39599-2.5823 0.46219-0.37253 0.0662-1.7251 0.33158-3.0057 0.58974-12.144 2.4482-21.837 5.3487-29.549 8.8424-1.5111 0.68456-3.3097 1.615-3.3562 1.7361-0.05451 0.14206 0.29002 0.81768 0.76242 1.4951 1.0618 1.5226 2.4858 4.0622 3.3633 5.9982 2.0763 4.5808 3.6712 8.7875 5.1517 13.588 2.2836 7.4051 3.7922 14.649 4.5314 21.759 0.32677 3.1431 0.41357 4.8575 0.42006 8.2973 0.0064 3.4235-0.02447 4.043-0.33817 6.7733-0.37956 3.3036-1.141 6.5006-1.9106 8.0222-0.08833 0.17463-0.13507 0.3175-0.10387 0.3175s0.6892-0.24399 1.4622-0.54221c2.6096-1.0067 7.0043-2.3284 11.565-3.4782 4.341-1.0944 8.6112-2.0033 14.478-3.0818 1.1017-0.20251 5.1913-0.8869 6.4197-1.0743 0.47389-0.0723 1.2236-0.18728 1.6659-0.25549 4.058-0.62578 8.3083-1.1854 13.081-1.7223 4.0423-0.45472 5.9028-0.6394 9.017-0.89503 0.86148-0.0707 2.0045-0.16566 2.54-0.21099 1.8224-0.15427 6.4645-0.40572 12.615-0.68333 3.0292-0.13672 5.1402-0.17444 9.8794-0.17655 3.3149-1e-3 6.4772 0.0208 7.0273 0.0496 0.55016 0.0287 2.1623 0.0901 3.5826 0.1364 4.5006 0.1467 8.694 0.38205 12.065 0.67713 1.7079 0.1495 4.4493 0.41706 5.1647 0.50408 3.3635 0.40911 4.3812 0.53821 5.334 0.67667 3.8158 0.55449 5.5047 0.84535 9.3133 1.604 8.7764 1.7481 17.37 4.1855 20.801 5.8997 0.64581 0.32269 0.73485 0.41987 0.55216 0.60256-0.11737 0.11736-0.25129 0.0919-1.3435-0.25541-2.0705-0.65838-3.2486-0.98617-6.1662-1.7157-1.8875-0.47194-6.8288-1.5622-7.0804-1.5622-0.0658 0-0.54905 0.33728-1.074 0.7495-3.4844 2.7362-7.8194 5.5972-11.432 7.5447-0.57941 0.31236-0.8296 0.49491-0.8558 0.62445-0.0204 0.10068-0.0761 0.48785-0.12387 0.86039-0.36486 2.8457-0.44277 3.972-0.49026 7.0876-0.0561 3.6814 0.0835 6.4192 0.47611 9.3378 0.0439 0.32597 0.12525 0.96414 0.18088 1.4182 0.0556 0.45402 0.12625 0.8255 0.15695 0.8255s0.21378-0.23813 0.40684-0.52917zm-112.33-34.11c-0.77904-0.31064-1.0421-1.173-0.67944-2.2272 0.2419-0.70308 0.52325-1.1594 1.8958-3.0748 0.67522-0.94227 1.4442-2.0632 1.7087-2.4909 2.09-3.3788 3.332-7.5976 3.8842-13.194 0.25106-2.5444 0.29065-3.6161 0.43158-11.684 0.11071-6.3378 0.5215-9.3339 1.8336-13.373 1.1664-3.5907 3.1352-6.7455 5.8465-9.3678 1.2163-1.1764 2.0961-1.8803 3.5786-2.8629 3.1379-2.0798 6.1206-3.3142 8.4291-3.4885 0.90216-0.0681 1.1271-0.0172 1.4404 0.32578 0.16296 0.17842 0.39054 0.3043 0.6876 0.38032 1.3084 0.33484 2.517 1.7911 3.0699 3.699 0.49101 1.6943 0.57175 3.8545 0.34045 9.1087-0.34123 7.7516-0.1543 12.254 0.69074 16.637 0.75058 3.8931 2.0997 7.5841 4.0696 11.134 2.3242 4.1881 4.2313 6.5269 6.7497 8.278 0.23989 0.16679 0.44844 0.39677 0.52416 0.57801 0.11431 0.27358 0.11191 0.32935-0.02626 0.612-0.40881 0.83625-1.953 0.85944-3.7165 0.0558-1.4353-0.65407-3.2729-2.072-4.9035-3.7835-3.4136-3.583-5.5231-7.7421-7.152-14.101l-0.09218-0.35983h-0.44766c-1.4382 0-6.5141 0.98277-11.568 2.2398-2.5755 0.64055-3.1555 0.74499-3.937 0.70896l-0.59267-0.0273-0.06106 1.5238c-0.37336 9.3164-2.3351 16.369-5.7478 20.663-1.2927 1.6267-3.321 3.3303-4.6051 3.8679-0.73825 0.30906-1.2591 0.37949-1.651 0.22323zm12.906-30.212c1.8823-1.1369 4.7381-2.1469 7.0783-2.5032 1.8484-0.28143 5.7167-0.0437 7.6177 0.46823 0.19515 0.0526 0.37392 0.0764 0.39729 0.0531 0.02336-0.0234-0.03605-0.62594-0.13202-1.3391-0.55259-4.1061-0.63107-8.1443-0.29752-15.309 0.16823-3.6135 0.1198-6.4516-0.13873-8.128-0.09694-0.62865-0.22289-1.4978-0.27988-1.9316l-0.10362-0.78854-0.98891 0.63226c-5.6377 3.6045-10.471 9.2245-12.169 14.151-0.78726 2.2831-1.2449 4.4252-1.4822 6.9379-0.19693 2.0849-0.38176 8.1765-0.24808 8.1765 0.02846 0 0.36471-0.18904 0.74723-0.42009zm120.66 28.317c-0.99473-0.40888-1.4119-0.91567-1.467-1.7824-0.0651-1.0221 0.43153-1.7539 1.3767-2.0287 0.6018-0.17495 1.0934-0.10316 1.6727 0.24426 0.62712 0.3761 0.94271 0.90968 0.98546 1.6662 0.0387 0.68488-0.08 1.0905-0.43855 1.4989-0.54603 0.6219-1.2641 0.75738-2.1292 0.40176zm-14.696-5.4498c-2.4822-0.5436-4.8141-2.4237-6.8911-5.5558-1.7431-2.6286-3.3444-6.032-4.5798-9.7341-1.8123-5.4306-2.3972-10.516-1.773-15.416 0.51908-4.0746 1.8423-8.1137 3.6923-11.271 1.2249-2.0903 2.5034-3.732 4.3469-5.5818 1.8085-1.8147 3.1671-2.857 4.7916-3.676 1.511-0.76179 3.1585-1.2421 3.9299-1.1458 1.603 0.20028 3.752 2.1222 5.0694 4.5337 0.66803 1.2228 1.4148 3.3744 1.8661 5.3763 0.13326 0.59117 0.35524 1.2406 0.60777 1.778 2.1658 4.6091 3.2545 10.1 3.2545 16.412 0 9.6466-2.5176 17.613-6.886 21.788-1.3218 1.2634-2.6248 2.0252-4.1843 2.4462-0.78542 0.21205-2.3822 0.23462-3.2442 0.0458zm2.213-4.8872c2.1062-0.62156 4.401-3.953 5.7094-8.2886 1.9216-6.3678 1.9618-14.264 0.12159-23.873-0.73914-3.86-0.95095-4.8418-1.1147-5.1673-0.6206-1.2338-3.9146-6.6692-4.3033-7.1008-0.11961-0.13282-1.3703 0.88719-2.6269 2.1424-1.7482 1.7463-3.0133 3.364-4.3237 5.5292-2.0498 3.3869-3.4094 7.2296-4.0219 11.367-0.21732 1.4681-0.2189 5.4131-3e-3 6.9003 0.44355 3.052 1.1815 5.7963 2.3448 8.7207 1.899 4.7735 3.9819 8.0481 5.9506 9.3552 0.79557 0.52823 1.4668 0.65114 2.2668 0.41505zm-66.441 2.6641c-0.37264-0.1032-0.70552-0.52156-0.70552-0.88671 0-0.42817 0.2777-0.90362 1.6017-2.7424 0.65387-0.90805 1.3777-1.9939 1.6085-2.413 1.3413-2.4358 2.0403-5.6599 2.0375-9.398-0.0017-2.2545-0.11986-3.6654-0.71614-8.5513-0.65245-5.3462-0.80813-7.6348-0.7062-10.382 0.1511-4.0728 1.1785-6.9936 3.5846-10.191 2.1785-2.8945 5.2475-4.7172 6.298-3.7406 0.13012 0.12097 0.3641 0.2222 0.5742 0.24841 0.45719 0.0571 1.5338 0.6654 2.1209 1.1984 1.6484 1.4965 2.3623 3.8493 4.3823 14.442 1.7566 9.212 2.3803 11.923 3.8566 16.764 0.51993 1.705 1.986 6.0183 2.5756 7.5777 0.73475 1.9434 1.8302 4.3603 1.9762 4.3603 0.0441 0 0.12962-0.0597 0.19014-0.13258 0.15627-0.1883 0.54482-0.37542 0.77954-0.37542 0.52496 0 1.5024-1.4329 1.9924-2.921 0.47229-1.4341 0.56773-2.2169 0.56773-4.6567 0-3.4376-0.15711-4.4015-2.16-13.25-1.4299-6.3174-1.8989-10.13-1.691-13.746 0.20488-3.5624 0.85057-6.2112 2.1546-8.8391 1.5659-3.1554 3.6189-5.6199 6.0252-7.2324 2.0929-1.4026 4.1801-1.5192 4.1801-0.2335 0 0.33698-0.0474 0.40061-1.1235 1.5067-1.6196 1.6647-2.4721 2.8594-3.4523 4.8378-2.0729 4.1838-2.8759 7.3784-2.8741 11.433 2e-3 3.5828 0.3437 5.7695 2.119 13.543 1.3309 5.828 1.6852 8.0921 1.6886 10.791 5e-3 4.3393-1.286 7.8783-3.5966 9.8564-0.64101 0.54875-1.8022 1.0802-2.6992 1.2355-0.41356 0.0716-0.7872 0.13012-0.8303 0.13012s-0.0191 0.0847 0.0534 0.18817c0.20055 0.28632 0.16596 0.68591-0.0807 0.9326-0.6569 0.6569-2.1696 0.13063-3.5288-1.2277-1.1379-1.1371-2.279-2.7843-3.8009-5.4864-3.1003-5.5045-4.436-9.8956-6.8459-22.506-0.41486-2.1708-1.1398-5.9091-1.611-8.3073-1.0844-5.5193-1.2728-6.6684-1.2728-7.7652 0-0.47891-0.02858-0.86998-0.0635-0.86902-0.0959 3e-3 -1.049 1.3004-1.5533 2.1149-0.89425 1.4446-1.8283 3.6612-2.3189 5.5033-0.26102 0.98002-0.5114 2.424-0.64471 3.7181-0.11276 1.0946-0.05918 4.8796 0.0876 6.1879 0.04962 0.44238 0.13126 1.1853 0.18141 1.651 0.05015 0.46567 0.22068 1.9135 0.37896 3.2173 0.62693 5.1645 0.66213 5.6243 0.66762 8.7207 0.0058 3.2317-0.08124 4.1473-0.59108 6.223-0.41775 1.7008-0.92634 2.994-1.6724 4.2526-1.3534 2.2831-3.3498 4.0329-5.6054 4.9132-0.89744 0.35022-1.1763 0.40558-1.5381 0.30536zm44.144-0.25015c-0.49457-0.11646-0.81673-0.31321-1.3584-0.82959-0.6924-0.6601-0.85513-0.99888-0.85859-1.7873-2e-3 -0.50669 0.0392-0.72027 0.20488-1.057 0.26942-0.54751 0.81836-1.0752 1.425-1.3697 0.42864-0.20812 0.5809-0.23532 1.3307-0.23765 0.75891-2e-3 0.89671 0.022 1.3295 0.23447 1.3946 0.68485 1.8938 2.2411 1.1602 3.6174-0.60146 1.1285-1.9603 1.7292-3.2333 1.4294zm-50.747-2.2746c-0.14713-0.0351-0.39478-0.1433-0.55033-0.24053-0.15554-0.0972-0.50108-0.29813-0.76787-0.44644-0.80013-0.44482-1.1666-1.0921-1.1651-2.0578 0.0022-1.364 1.1901-2.4296 2.5837-2.3177 0.98779 0.0793 1.9561 0.71828 2.4255 1.6006 0.27833 0.52316 0.28337 1.7275 0.0094 2.2414-0.49201 0.92282-1.5821 1.4475-2.5353 1.2204zm-6.5484 42.457c-0.05232-0.46567-0.24799-1.6066-0.43483-2.5355-0.5676-2.8218-2.2641-9.4597-2.4721-9.6727-0.05416-0.0554-0.69674-0.36868-1.428-0.69609-5.5405-2.4809-11.051-5.7368-16.009-9.46-0.87906-0.66003-1.5844-1.1308-1.6942-1.1308-0.19246 0-2.2051 0.37531-4.5467 0.84786-3.6493 0.73643-9.8481 2.178-12.573 2.9239-0.4191 0.11473-1.4653 0.40045-2.3248 0.63493-1.5034 0.41015-1.7799 0.50208-1.5205 0.50559 0.73393 0.01 3.4086 0.19819 4.2686 0.30043 5.9212 0.70393 11.55 2.5712 19.027 6.3117 7.4975 3.7507 13.1 7.5526 17.701 12.012 0.71701 0.69498 1.4715 1.4814 1.6766 1.7475l0.37291 0.48393 0.02628-0.71316c0.01445-0.39224-0.01653-1.0942-0.06884-1.5598zm123.05-78.253c2.6186-2.1367 6.7153-5.6591 9.9199-8.5294 2.1574-1.9323 3.8092-3.4857 6.3553-5.9762 1.1699-1.1444 2.5142-2.3975 2.9874-2.7848 0.4732-0.38728 0.86035-0.72887 0.86035-0.75911 0-0.10287-6.2814-6.4426-8.7147-8.7957-6.245-6.039-18.319-16.945-26.549-23.981-4.2135-3.6023-4.6484-3.9682-4.679-3.9376-0.016 0.016 0.26421 0.53821 0.62268 1.1605 0.88934 1.5438 2.7555 5.2083 3.5899 7.0493 4.2417 9.3593 6.7221 19.465 7.369 30.023 0.0499 0.81487 0.11748 1.5077 0.15013 1.5397 0.0326 0.032 0.84039 0.33089 1.795 0.66429 3.1686 1.1066 5.1516 1.9281 7.2813 3.0162 1.851 0.9457 2.5401 1.4135 2.765 1.877 7e-3 0.0151 0.12925-0.0325 0.27096-0.10583 0.53973-0.27911 1.0287-0.0844 1.0274 0.40905-8.5e-4 0.18996-0.15603 0.47162-0.56548 1.024-1.3825 1.8653-3.2087 4.6965-4.7239 7.3237-0.36257 0.62865-0.73343 1.2668-0.82413 1.4182s-0.13982 0.27517-0.10914 0.27517c0.0307 0 0.55766-0.40951 1.1711-0.91002zm-183.48-8.716c1.2099-0.70339 3.7631-1.9633 5.2815-2.6063l0.94374-0.39963 0.0517-1.4945c0.21132-6.1085 0.65455-10.151 1.6651-15.186 2.1182-10.554 6.2501-20.629 12.156-29.638 0.6853-1.0454 0.97737-1.5553 0.85344-1.4899-0.28179 0.14881-3.5635 2.4545-5.7764 4.0583-6.9332 5.0251-12.737 10.043-19.348 16.728-4.7297 4.783-10.008 10.625-13.245 14.661l-0.49629 0.61871 0.42225 0.43963c0.23223 0.2418 0.78122 0.87709 1.22 1.4118 2.8067 3.4204 6.2583 6.7921 9.9841 9.7531 1.4959 1.1889 4.9949 3.7951 5.095 3.7951 0.03986 0 0.57667-0.29312 1.1929-0.65138zm75.988-15.816c1.2451-0.0696 2.363-0.14371 2.4842-0.16471s0.47629-0.20137 0.78916-0.40083c0.45418-0.28955 0.53777-0.37402 0.41468-0.41902-0.08478-0.031-0.93521-0.29356-1.8898-0.58344-2.114-0.64196-2.928-1.0063-3.5764-1.6008-0.54715-0.50161-0.98563-1.2954-1.2197-2.208-0.17506-0.68258-0.19442-2.2492-0.0387-3.1327 0.11971-0.67917 0.54206-2.0895 0.74331-2.482l0.12219-0.23835 0.59868 0.56477c0.6976 0.65808 1.5691 1.2467 2.3767 1.6053 0.43964 0.1952 0.58345 0.303 0.62119 0.46567 0.2421 1.0432 0.70565 1.7715 1.3877 2.1802 0.52027 0.31172 0.95068 0.35479 1.4026 0.14037 0.40577-0.19255 0.45169-0.27417 0.58688-1.0431 0.06667-0.37922 0.1407-0.721 0.1645-0.75951 0.02381-0.0385 0.43498-0.0911 0.91371-0.11694 3.0831-0.16619 5.8518-1.5181 8.6713-4.2341l0.77353-0.74511 0.40656 0.5746c0.54733 0.77358 1.8799 2.0822 2.6772 2.629 1.2998 0.89154 2.8952 1.4892 4.2947 1.6088 0.86319 0.0738 2.2461-0.0103 2.8582-0.17379 0.4188-0.11187 0.44027-0.10946 0.48304 0.0541 0.0246 0.0941 0.0228 0.33156-4e-3 0.52761-0.0831 0.6063 0.37552 1.2206 0.91129 1.2206 0.68017 0 1.8777-1.4615 2.4086-2.9394 0.29384-0.81809 0.30482-0.83394 0.89675-1.2939 0.32959-0.25611 1.0305-0.91455 1.5577-1.4632l0.95841-0.99752 0.74704 0.93354c1.5063 1.8823 2.0709 3.1188 2.0671 4.5268-5e-3 1.9776-1.1194 3.7725-3.234 5.2109-1.7035 1.1587-2.2612 1.684-2.1522 2.0272 0.0711 0.22412 0.22142 0.24245 2.462 0.3003l1.8672 0.0482 0.41885-0.27079c1.0125-0.65461 2.3913-2.3177 3.042-3.6691 1.4243-2.9582 1.1186-5.7987-0.95722-8.8945-0.59074-0.881-1.7527-2.2932-2.1696-2.6368l-0.28879-0.23804 0.29057-0.5923c1.1965-2.4389 1.1477-4.759-0.12409-5.9081-0.46449-0.41965-0.72038-0.47596-0.99562-0.21909-0.33281 0.3106-0.51343 0.73486-0.87971 2.0664-0.43335 1.5754-0.66671 2.1899-1.1884 3.1298-1.3609 2.4518-3.7072 4.692-5.8353 5.5715-2.0871 0.86256-4.1538 0.54748-5.9865-0.91266-0.76972-0.61325-1.3248-1.2704-2.1877-2.5896-0.57716-0.88247-0.70584-1.1418-0.75633-1.524-0.0803-0.60797-0.31511-1.132-0.58706-1.3102-0.19198-0.1258-0.25488-0.1298-0.49263-0.0313-0.35666 0.14774-1.1905 0.98225-2.1967 2.1986-2.7502 3.3244-5.7815 4.9536-8.9175 4.7926-1.8328-0.0941-3.0916-0.64391-4.3336-1.8926-0.42767-0.42999-0.88286-0.96432-1.0115-1.1874-0.12868-0.22308-0.35463-0.56625-0.50212-0.7626-0.25641-0.34134-0.81162-1.5076-1.3959-2.9322-0.45966-1.1207-1.0062-1.6865-1.7344-1.7957-0.54053-0.0811-1.0692 0.19271-1.3739 0.7115-0.44095 0.75074-0.26589 1.5688 0.88394 4.1307l0.4611 1.0273-0.2591 0.42111c-0.3929 0.63853-0.90602 1.7752-1.1802 2.6143-1.0551 3.2294-0.86655 6.4808 0.51156 8.8195 0.5997 1.0177 2.1676 2.3727 2.7597 2.3849 0.10532 2e-3 1.2102-0.053 2.4553-0.1226zm68.516-16.142c1.2916-0.18032 2.8594-0.79085 4.1094-1.6003 0.9652-0.625 2.4863-2.1959 3.107-3.2089 1.6186-2.6412 1.9915-5.9401 1.0008-8.853-1.7876-5.2558-7.4272-8.2036-12.78-6.6798-0.92574 0.26353-2.5899 1.0871-3.3375 1.6517-2.0869 1.576-3.5377 3.8944-4.0476 6.4681-0.18841 0.95115-0.14734 3.2038 0.0761 4.1727 0.89671 3.8888 3.8104 6.8902 7.6319 7.8617 1.4085 0.35809 2.6316 0.41225 4.2396 0.18774zm-106.05-0.36988c3.9167-0.58785 7.1342-3.2749 8.3785-6.9974 1.2996-3.8879 0.23448-8.1296-2.7453-10.933-1.4392-1.3539-3.1419-2.2288-5.1675-2.6553-0.99381-0.20925-2.9913-0.20712-3.9759 0.0042-3.7469 0.80429-6.6149 3.2997-7.8646 6.8431-0.40268 1.1417-0.55126 2.0608-0.55126 3.4099 0 1.3492 0.14858 2.2682 0.55126 3.4099 0.545 1.5452 1.3489 2.8261 2.4828 3.9561 2.3764 2.368 5.6298 3.4519 8.892 2.9623zm52.237-21.524c-0.1229-0.42322-0.23423-0.57904-0.83312-1.1658-0.4007-0.39262-0.96489-0.83624-1.3422-1.0554-0.35801-0.20793-0.63742-0.39157-0.62091-0.40808 0.08044-0.08045 3.296-0.35568 4.7305-0.40491l1.6236-0.05571-0.59267 0.39892c-1.2616 0.84919-2.159 1.9965-2.159 2.7603 0 0.97217 0.93307 0.77533 3.464-0.73076 2.189-1.3026 2.8015-1.9082 2.6844-2.6542-0.0264-0.168-0.0611-0.41661-0.0772-0.55245-0.055-0.46427-0.90694-0.99655-2.1343-1.3335-0.60998-0.16745-0.8836-0.18626-2.7517-0.18912-4.1345-0.0064-7.5484 0.73679-7.961 1.7329-0.12725 0.30721 0.03261 0.59605 0.44763 0.80883 0.1509 0.07737 0.50933 0.35964 0.7965 0.62729 0.28717 0.26764 0.87772 0.70774 1.3123 0.97802 1.0677 0.66399 3.4928 1.9093 3.5272 1.8112 0.0152-0.04342-0.0362-0.29877-0.11418-0.56745zm-120.64 11.269c-1.1767-0.25235-2.563-0.90311-3.817-1.7918-0.9219-0.65338-2.6564-2.3999-3.4786-3.5027-2.5734-3.4517-4.646-8.3837-5.294-12.598-0.13001-0.84543-0.06915-2.0736 0.12244-2.4712 0.49169-1.0202 1.6122-1.4092 2.6119-0.90664 0.872 0.4383 1.5514 1.5337 2.907 4.687 0.77476 1.8021 2.1716 4.5949 2.8996 5.7976 1.9585 3.2352 4.1166 5.1667 5.7725 5.1667 1.8243 0 3.7868-3.1756 4.6568-7.5353 0.68819-3.4485 0.7625-5.2435 0.69231-16.722-0.02869-4.6916 0.03028-6.392 0.28756-8.2923 0.48809-3.6049 1.4448-6.3389 2.92-8.3447 0.46707-0.63506 1.5577-1.7141 2.1126-2.09 3.3538-2.2724 7.512-1.4191 10.419 2.1379 1.6242 1.9877 3.3332 5.4251 3.7707 7.5844 0.19604 0.96747 0.13355 1.4752-0.2205 1.7915-0.23977 0.21423-0.32657 0.24192-0.64572 0.20595-0.54823-0.061798-1.1092-0.54324-2.7322-2.345-2.1673-2.4059-3.5246-3.5857-5.024-4.3668-0.78039-0.40654-1.3298-0.52982-1.8915-0.42444-0.51566 0.09673-1.2113 0.87633-1.7236 1.9316-0.64366 1.3258-1.0306 2.8303-1.3336 5.1846-0.13797 1.0723-0.15281 2.0091-0.15558 9.8213-0.00216 6.1025-0.033561 8.9837-0.10703 9.8213-0.33207 3.786-0.82413 6.395-1.6687 8.8477-0.37305 1.0834-1.4063 3.215-1.9495 4.0216-1.599 2.3748-3.508 3.8275-5.7296 4.3601-0.85546 0.20509-2.5183 0.22019-3.4011 0.0309zm232.65-6.7786c-2.9788-0.27061-5.6507-1.7962-7.2365-4.1318-1.5138-2.2295-2.1099-4.7621-2.0109-8.5435 0.12097-4.6199 1.2146-9.4528 4.4113-19.495 1.676-5.2648 2.189-7.0171 2.548-8.7033 0.62926-2.9554 0.48587-4.5146-0.4636-5.0407-0.3427-0.1899-0.47035-0.21013-1.27-0.20131-1.3866 0.0153-2.6493 0.3544-4.7099 1.2648-1.9761 0.87306-3.2854 1.6848-7.0144 4.3488-0.9302 0.66454-1.9586 1.3429-2.2854 1.5074-1.804 0.90848-3.5173-0.0095-3.5136-1.8826 2e-3 -1.1371 0.56626-2.0727 2.2763-3.7759 3.2539-3.241 8.4334-6.0925 12.707-6.9957 0.90783-0.19186 1.269-0.22408 2.54-0.22654 1.2573-0.0025 1.5955 0.0257 2.2333 0.18577 2.7365 0.68682 4.6271 2.559 5.3614 5.309 0.20789 0.7786 0.2265 0.98278 0.23156 2.54 0.0103 3.1766-0.38259 4.7969-3.634 14.986-1.9043 5.9676-3.0259 10.44-3.4719 13.843-0.21132 1.6125-0.25741 3.9244-0.0987 4.953 0.39483 2.5598 1.4068 3.7723 3.6118 4.3275 0.93941 0.23652 3.2716 0.2137 4.8245-0.04721 3.0118-0.50603 5.4447-1.2884 9.2049-2.9601 1.7782-0.79057 2.0809-0.84382 2.4871-0.43765 0.33061 0.33061 0.33036 0.73016-8.5e-4 1.3085-0.97649 1.7054-3.745 3.8254-7.3148 5.6011-3.5452 1.7635-6.6686 2.5155-9.4125 2.2663zm-196.42-17.082c-0.86594-0.35602-1.2384-0.87119-1.2396-1.7145 0-0.26961-0.05551-0.9093-0.12251-1.4215-0.067006-0.51223-0.16317-1.5028-0.21371-2.2013-0.22723-3.141-0.61838-5.721-1.3654-9.0061-1.3422-5.9026-2.6798-10.116-6.5345-20.585-2.3038-6.2565-2.5011-6.9417-2.5725-8.9323-0.075379-2.1009 0.25348-3.0425 1.4967-4.2856 0.62001-0.61996 0.8625-0.79556 1.6133-1.1683 1.1475-0.56967 2.061-0.74838 3.0706-0.60076 2.1258 0.31083 4.0067 1.3836 7.592 4.3302 5.2537 4.3177 6.0781 4.9707 7.9872 6.3262 3.5788 2.5412 6.8336 4.1649 9.4542 4.7163 0.99289 0.20893 2.3816 0.24868 3.1327 0.08968 2.529-0.53536 4.2706-2.859 4.9256-6.5714 0.17569-0.99581 0.14972-4.4329-0.04383-5.7997-0.59083-4.1722-1.6078-7.6155-4.626-15.663-2.3628-6.3002-3.0491-8.4336-3.5953-11.176-0.42003-2.109-0.51126-3.0565-0.50948-5.2917 0.0017-2.1132 0.12567-3.2507 0.47909-4.3949 0.63746-2.0639 1.9526-3.3798 3.463-3.4652 0.72133-0.040759 1.3066 0.14462 1.718 0.54416 0.41787 0.40583 0.51043 0.6119 0.81283 1.8097 0.40096 1.5882 0.71745 2.4668 2.6848 7.4535 4.0495 10.264 5.8197 14.966 6.9974 18.584 1.4194 4.3611 2.2094 7.8452 2.611 11.515 0.14677 1.3412 0.14476 5.218-0.0033 6.4347-0.73729 6.0573-3.3851 10.757-7.6988 13.664-0.80811 0.54464-2.4115 1.3222-3.405 1.6511-5.9218 1.961-12.722 0.34364-20.616-4.9033-0.79163-0.52617-1.8775-1.2802-2.413-1.6756-0.53552-0.39538-0.98329-0.70977-0.99506-0.69863-0.01177 0.01115 0.17313 0.56943 0.41088 1.2406 1.1013 3.1091 2.4315 7.3386 3.1532 10.026 1.6348 6.0873 2.1309 10.364 1.6156 13.928-0.56148 3.8828-2.3515 6.5794-4.8561 7.3155-0.71495 0.21013-1.7987 0.17721-2.4076-0.07312zm163.06-6.958c-2.3629-0.37291-4.4065-1.5576-5.8608-3.3975-0.74747-0.94563-1.3886-2.3536-1.7998-3.9523-0.8785-3.4159-0.70221-6.9977 0.60025-12.196 0.83969-3.3515 1.9212-6.5826 4.5202-13.504 0.6382-1.6997 1.4252-3.8714 1.7489-4.826 0.55072-1.624 1.2909-4.2275 1.2217-4.2968-0.0691-0.06914-1.7734 0.62954-2.8523 1.1693-5.9863 2.995-11.85 8.392-17.004 15.651-1.0876 1.5317-1.6071 2.0992-2.3137 2.5274-0.77184 0.46778-1.361 0.6375-2.3536 0.67793-1.5838 0.06452-2.6467-0.34806-3.7663-1.4619-1.0431-1.0378-1.4772-2.0826-1.4772-3.5553 0-0.95721 0.13727-1.4653 0.96103-3.5577 1.9045-4.8374 4.1504-11.906 6.3214-19.897 1.159-4.2657 1.7208-5.7579 2.6343-6.9966 1.3675-1.8543 3.7902-2.4607 5.7884-1.4488 0.62847 0.31826 1.4865 1.2204 1.8531 1.9482 0.91529 1.8175 0.75577 3.908-0.7132 9.3459-0.18426 0.6821-0.33502 1.2792-0.33502 1.3269 0 0.04769 0.6394-0.33894 1.4209-0.85918 5.5546-3.6978 10.757-5.5336 14.526-5.1261 3.8424 0.41536 6.4947 2.7833 7.306 6.5225 0.20907 0.96365 0.21067 3.4794 3e-3 4.6851-0.45858 2.6619-1.4854 5.9708-3.6126 11.642-3.6075 9.6173-4.6996 13.356-5.0156 17.173-0.0874 1.0557-0.0814 1.3656 0.0464 2.3804 0.23618 1.8761 0.59472 2.9212 1.2307 3.5872 0.1698 0.17783 0.76122 0.57788 1.3143 0.889 1.4489 0.81508 2.0001 1.4771 2.0001 2.4019 0 1.2462-1.3243 2.443-3.27 2.955-0.65704 0.17291-2.5185 0.28749-3.1224 0.19219zm-93.26-20.743c-0.11642-0.016815-0.55457-0.072077-0.97367-0.12281-5.8208-0.70458-10.213-4.0701-11.367-8.7097-0.19458-0.78226-0.22262-1.0712-0.22636-2.3322-0.0047-1.6168 0.10108-2.2706 0.60288-3.7231 1.2519-3.6236 4.2378-6.8326 8.7472-9.4007 2.0399-1.1617 5.2596-2.6434 7.2715-3.3462 0.63028-0.22017 1.1588-0.43873 1.1744-0.48569 0.02322-0.06965-0.86565-2.267-0.96368-2.3823-0.01587-0.01866-0.30568 0.17806-0.64402 0.43718-4.7161 3.6116-9.4948 4.8151-13.817 3.4797-0.99726-0.30812-2.7726-1.2187-3.6333-1.8634-2.3048-1.7266-4.2382-4.4369-5.2457-7.3535-0.46264-1.3393-0.60699-2.1947-0.60722-3.5983 0-1.0663 0.0253-1.2987 0.19384-1.7684 0.51698-1.4407 1.7058-2.5702 3.0943-2.9399 0.5115-0.1362 1.7146-0.15025 2.2525-0.02631 0.76383 0.17601 1.4565 0.58462 2.1278 1.2552 0.73389 0.73312 1.1634 1.4253 2.0327 3.2758 1.1305 2.4066 2.0117 3.403 3.1473 3.5586 0.5357 0.07343 1.3214-0.15188 2.3889-0.68503 1.0265-0.51268 1.9709-1.1898 3.5879-2.5725 2.0285-1.7346 2.8724-2.2626 4.2903-2.6845 0.61386-0.18262 0.92672-0.22512 1.6468-0.2237 1.478 0.0029 2.539 0.31268 3.6888 1.0769 2.0976 1.3943 3.8789 4.3917 6.2378 10.497 3.2457 8.4001 3.9964 14.909 2.3122 20.047-1.9476 5.9415-7.1544 9.8999-13.883 10.555-0.86089 0.08378-2.9539 0.10593-3.4355 0.03636zm3.6297-10.144c1.8455-0.45918 3.1325-1.3765 3.852-2.7458 0.56208-1.0696 0.67574-1.675 0.67758-3.6086 0.0017-1.7836-0.06971-2.3964-0.50723-4.353-0.34956-1.5632-0.19534-1.5101-1.4496-0.49953-3.1786 2.561-6.23 5.6786-7.759 7.9274-0.6278 0.92336-0.985 1.6419-1.0076 2.0269-0.01662 0.28355 0.01674 0.33497 0.37372 0.57608 0.43664 0.29492 1.5416 0.67391 2.3174 0.79487 0.73182 0.1141 2.8572 0.04231 3.5027-0.11831zm52.928 3.4989c-3.0153-0.34676-6.2326-1.9979-8.4262-4.3245-0.99685-1.0573-1.576-1.89-2.2107-3.1784-0.31567-0.64082-0.58477-1.1806-0.59801-1.1996-0.0132-0.01896-0.32395 0.28584-0.69046 0.67733-0.84717 0.90492-2.2242 2.1264-3.242 2.8757-2.2041 1.6228-4.7714 2.4252-7.0152 2.1929-3.4813-0.36052-6.2097-2.683-7.5054-6.3888-1.8411-5.2657-0.52263-13.426 3.4543-21.378 1.6523-3.304 3.2591-5.6719 5.2668-7.7613 1.3942-1.451 2.3851-2.2402 3.7806-3.0112 3.3455-1.8482 7.2697-1.6658 10.544 0.49025 0.91578 0.60309 2.2184 1.8773 2.8534 2.7913 0.90658 1.3047 1.6946 3.0087 2.0105 4.3475 0.085 0.36035 0.21149 0.56979 0.60848 1.0078 0.84249 0.92966 1.279 1.8828 1.3827 3.0189 0.0786 0.86154-0.0665 1.5747-0.64492 3.1694-0.88561 2.4417-1.6066 5.1851-1.9608 7.4608-0.1409 0.90533-0.17858 1.5416-0.18057 3.0491-2e-3 1.7744 0.0137 1.98 0.23447 2.9996 0.48238 2.2279 0.93547 3.4037 1.8554 4.815 1.2266 1.8817 2.4473 2.7126 5.5082 3.7492 1.5243 0.51623 1.8518 0.688 2.1473 1.1266 0.63541 0.94288 0.13661 1.9091-1.3594 2.6332-1.5643 0.75717-3.7598 1.0735-5.8121 0.83751zm-19.3-14.777c2.3746-2.4559 5.1535-6.8546 8.3959-13.29l1.0291-2.0424-0.15553-0.40726c-0.42592-1.1153-1.4902-2.239-2.1206-2.239-0.88212 0-3.0091 2.5051-4.6414 5.4666-1.4922 2.7073-2.8275 6.3415-3.39 9.2261-0.26617 1.3651-0.43686 3.223-0.35571 3.8718l0.0611 0.48814 0.22657-0.16275c0.12462-0.08951 0.55235-0.49968 0.95051-0.91148z" stroke-width=".084667"/>
 </g>
</svg>
